<?xml version="1.0" encoding="UTF-8"?>
<!-- Generator: Adobe Illustrator 23.0.3, SVG Export Plug-In . SVG Version: 6.00 Build 0)  -->
<svg xmlns="http://www.w3.org/2000/svg" xmlns:xlink="http://www.w3.org/1999/xlink" version="1.1" id="Capa_1" x="0px" y="0px" viewBox="0 0 360 360" style="enable-background:new 0 0 360 360;" xml:space="preserve">
<style type="text/css">
	.st0{fill:#FFFFFF;}
</style>
<g>
	<path class="st0" d="M276,264.4c0,1.3,0,2.7,0,4c0,24,0,48,0,72c0,12.2-7.4,19.6-19.6,19.6c-78.9,0-157.7,0-236.6,0   C7.3,360,0,352.7,0,340.2C0,241.4,0,142.7,0,44c0-12.7,7.2-20,20-20c14.6,0,29.2,0,43.9,0c2,0,3.3-0.4,4.4-2.4   c3.4-6.4,9-9.5,16.2-9.6c5.2-0.1,10.5,0.1,15.7-0.1c1.3-0.1,3.1-1,3.7-2c3.9-6.6,9.6-9.9,17.3-9.9c11.3,0,22.5,0,33.7,0   c7.7,0,13.4,3.2,17.3,9.9c0.6,1,2.2,2,3.3,2c5.1,0.2,10.2,0.1,15.4,0.1c7.7-0.1,13.6,3.1,17.1,9.9c1.1,2,2.4,2.1,4.2,2.1   c14.8,0,29.5,0,44.2,0c12.2,0,19.6,7.4,19.6,19.6c0,13.2,0,26.5,0,39.4c18.3,11.2,36.3,22.3,54.4,33.4c8.5,5.2,17,10.5,25.5,15.7   c2.5,1.5,4.1,3.5,4.1,6.6c-0.4,38.1-11.8,71.7-39.8,98.6C307.5,249.5,292.9,258.6,276,264.4z M36.3,60.2c0,88.1,0,175.9,0,263.6   c68,0,135.7,0,203.4,0c0.1-0.5,0.3-0.9,0.3-1.2c0-25.4,0-50.8,0-76.1c0-0.9-0.3-2.1-0.9-2.6c-3.5-3.3-7.1-6.4-10.9-9.7   c-1.1,4.6-3.9,5.9-8.1,5.9c-36.8-0.1-73.5,0-110.2-0.1c-0.9,0-1.8,0.1-2.6-0.1c-3.2-0.6-5.2-2.6-5.1-5.9c0-3.3,2-5.3,5.2-5.9   c1.2-0.2,2.5-0.1,3.7-0.1c35.8,0,71.5,0,107.2,0c1.3,0,2.6,0,4.4,0c-2.6-3.4-4.8-6.1-6.7-9c-1.4-2.3-3.1-3.1-5.8-3   c-33,0.1-66,0.1-99,0.1c-1.2,0-2.5,0.1-3.8-0.1c-3.3-0.4-5.6-3-5.4-6.1c0.2-3.3,2.1-5.3,5.4-5.8c1.2-0.2,2.5-0.1,3.7-0.1   c30.4,0,60.7,0,91.1,0c1.3,0,2.6,0,4.4,0c-1.5-3.3-2.9-6.1-3.9-9c-0.8-2.4-2.1-3.1-4.6-3.1c-29.1,0.1-58.2,0.1-87.4,0.1   c-1.2,0-2.5,0.1-3.7-0.1c-3.2-0.7-5.1-2.7-5-6.1c0.1-3.1,1.9-5.1,5-5.7c1.2-0.2,2.5-0.1,3.7-0.1c27.4,0,54.7,0,82.1,0   c1.4,0,2.7,0,4.5,0c-1-4.2-1.8-8-2.8-12c-1.6,0-2.9,0-4.3,0c-26.5,0-53,0-79.5,0c-1.2,0-2.5,0.1-3.7-0.1c-3.2-0.7-5.1-2.7-5-6   c0.1-3.1,1.9-5.1,5-5.7c1.2-0.2,2.5-0.1,3.7-0.1c26,0,52,0,78,0c1.3,0,2.6,0,4.1,0c-0.4-4.3-0.6-8-1-12c-1.6,0-3,0-4.3,0   c-25.6,0-51.2,0-76.9,0c-1.2,0-2.5,0.1-3.7-0.1c-3-0.6-4.9-2.6-4.9-5.7c-0.1-3.3,1.8-5.4,5.1-6c1.2-0.2,2.5-0.1,3.7-0.1   c27.4,0,54.8,0,82.1,0c1.2,0,2.7,0.2,3.7-0.3c6.1-3.5,12-7.3,18-10.9c-0.1-0.2-0.2-0.5-0.3-0.7c-1.3,0-2.7,0-4,0c-51,0-102,0-153,0   c-1.4,0-2.8,0.1-4.1-0.1c-3.2-0.6-5.2-2.6-5.1-5.9c0-3.3,2-5.3,5.2-5.9c1.1-0.2,2.2-0.1,3.4-0.1c54.2,0,108.5,0,162.7-0.1   c3.8,0,6.9,0.7,8.7,4.5c3.3-2,6.3-4.1,9.5-5.8c1.9-1.1,2.5-2.4,2.5-4.5c-0.1-11,0-22,0-33c0-3,0-5.9,0-8.9c-10.2,0-20,0-29.9,0   c-0.1,0.9-0.1,1.5-0.1,2.1c-0.1,8.5-1.3,9.6-9.9,9.6c-38.6,0-77.2,0-115.9,0c-3.8,0-7.5,0-11.2,0c-4.7-0.1-6.9-2.2-7-6.9   c0-1.6,0-3.2,0-5C56,60.2,46.2,60.2,36.3,60.2z M65.8,36c-15.2,0-30,0-44.9,0c-7.4,0-8.9,1.6-8.9,9.1c0,98,0,196,0,294   c0,7.4,1.6,9,9,9c78,0,156,0,234,0c0.8,0,1.5,0,2.2,0c4.4-0.1,6.8-2.3,6.8-6.7c0-26.5,0-53,0-79.5c0-0.9-0.3-2.2-0.9-2.6   c-3.5-2-7.1-3.9-11.1-6c0,1.9,0,3.3,0,4.7c0,23.1,0,46.2,0,69.4c0,7.1-1.7,8.7-8.9,8.7c-70,0-140,0-210,0c-7.6,0-9.1-1.5-9.1-9.2   c0-89.9,0-179.7,0-269.6c0-0.9,0-1.8,0-2.6c0.2-4.2,2.3-6.5,6.6-6.5c4.5-0.1,9,0,13.5,0c7.2,0,14.4,0,21.8,0   C65.8,43.9,65.8,40.2,65.8,36z M203.6,145.3c1.4,8.9,2.2,17.9,4.3,26.6c8.8,36.5,30.5,62.5,64.5,78.3c2.6,1.2,4.8,1.1,7.4,0   c10.9-4.9,20.9-11.3,29.8-19.3c25.9-23.3,37-53.1,38.5-87.3c0.1-2.5-1.5-3.2-3-4.1c-22-13.6-44-27.1-66-40.7   c-2.3-1.4-3.8-1.3-6,0.1c-21.9,13.6-43.8,27.1-65.7,40.4C204.8,140.8,203.4,142.3,203.6,145.3z M78,59.8c40.2,0,80,0,120,0   c0-10,0.1-19.7,0-29.4c-0.1-4.1-2.5-6.2-6.8-6.3c-7.4-0.1-14.7,0-22.1,0c-4.5,0-6.3-1.7-7.1-6c-0.7-4-2.6-5.9-6.4-5.9   c-11.7-0.1-23.5-0.1-35.2,0c-3.7,0-5.7,2-6.3,5.6c-0.8,4.9-2.5,6.3-7.5,6.4c-7.2,0-14.5,0-21.7,0c-4.1,0-6.7,2.1-6.7,5.9   C77.9,39.8,78,49.7,78,59.8z M210.1,48c11.6,0,22.8,0,34,0c5.9,0,7.8,2,7.8,7.9c0,12.6,0,25.2,0,37.8c0,1.2,0.1,2.3,0.2,3.9   c3.5-2.1,6.4-4.1,9.4-5.7c1.9-1,2.4-2.4,2.4-4.5c-0.1-14.6,0-29.2,0-43.8c0-5.5-2.1-7.5-7.8-7.6c-14.4,0-28.7,0-43.1,0   c-1,0-1.9,0.1-3,0.2C210.1,40.1,210.1,43.8,210.1,48z"></path>
	<path class="st0" d="M138.4,84c26.9,0,53.8,0,80.6,0c1.2,0,2.5-0.1,3.7,0.1c3.2,0.6,5.2,2.6,5.2,5.9c0,3.3-2,5.3-5.2,5.9   c-1.2,0.2-2.5,0.1-3.7,0.1c-54,0-108,0-162,0c-0.4,0-0.8,0-1.1,0c-5.1,0-7.8-2.2-7.8-6c0-3.8,2.8-6,7.8-6   C83.4,84,110.9,84,138.4,84z"></path>
	<path class="st0" d="M164.8,264c-18.4,0-36.8,0-55.1,0c-3.1,0-5.7-0.6-7.1-3.7c-1.6-3.6,0.6-7.5,4.6-8.2c1.2-0.2,2.5-0.1,3.7-0.1   c36.1,0,72.2,0,108.4,0c1,0,2-0.1,3,0c3.3,0.3,5.7,2.7,5.7,5.8c0.1,3.3-2.3,5.9-5.8,6.1c-3.6,0.2-7.2,0.1-10.9,0.1   C195.8,264,180.3,264,164.8,264z"></path>
	<path class="st0" d="M54,149.8c0-3.8-0.1-7.5,0-11.2c0.1-4.2,2.3-6.4,6.6-6.5c7.6-0.1,15.2-0.1,22.9,0c4.2,0.1,6.5,2.3,6.5,6.6   c0.1,7.6,0.1,15.2,0,22.9c-0.1,4.2-2.3,6.5-6.6,6.5c-7.6,0.1-15.2,0.1-22.9,0c-4.2-0.1-6.4-2.4-6.5-6.6   C53.9,157.5,54,153.7,54,149.8z M77.8,155.9c0-4.1,0-7.8,0-11.6c-4,0-7.8,0-11.5,0c0,4,0,7.8,0,11.6   C70.2,155.9,73.9,155.9,77.8,155.9z"></path>
	<path class="st0" d="M72,180c3.9,0,7.8-0.1,11.6,0c4,0.1,6.3,2.3,6.4,6.3c0.1,7.8,0.1,15.5,0,23.2c-0.1,4-2.3,6.3-6.3,6.4   c-7.8,0.1-15.5,0.1-23.2,0c-4-0.1-6.3-2.3-6.4-6.3c-0.1-7.8-0.1-15.5,0-23.2c0-4.1,2.4-6.3,6.7-6.4C64.5,179.9,68.2,180,72,180z    M77.8,192.2c-4.1,0-7.8,0-11.6,0c0,4,0,7.8,0,11.5c4,0,7.8,0,11.6,0C77.8,199.8,77.8,196.1,77.8,192.2z"></path>
	<path class="st0" d="M54,246c0-3.9-0.1-7.8,0-11.6c0.1-4,2.4-6.2,6.4-6.3c7.8-0.1,15.5-0.1,23.2,0c4,0.1,6.3,2.4,6.3,6.4   c0.1,7.8,0.1,15.5,0,23.2c-0.1,4-2.4,6.3-6.4,6.3c-7.8,0.1-15.5,0.1-23.2,0c-4-0.1-6.2-2.4-6.3-6.4C53.9,253.7,54,249.9,54,246z    M66.2,251.7c4.1,0,7.9,0,11.7,0c0-4,0-7.7,0-11.5c-4,0-7.7,0-11.7,0C66.2,244.1,66.2,247.8,66.2,251.7z"></path>
	<path class="st0" d="M171,288c12.5,0,25,0,37.5,0c4.7,0,7.5,2.2,7.5,6c0,3.7-2.8,6-7.5,6c-25,0-50,0-75,0c-4.7,0-7.5-2.3-7.5-6   c0-3.8,2.7-6,7.5-6C146,288,158.5,288,171,288z"></path>
	<path class="st0" d="M335.5,150.9c-4.3,39.2-22,67.9-55.9,85.9c-2.8,1.5-5.4,1.1-8.2-0.4c-29.4-15.9-47-40.3-53.2-73   c-0.7-3.8-1.5-7.7-1.4-11.5c0.1-2.1,1.4-5.1,3.1-6.2c17.4-11,35-21.8,52.6-32.4c1.7-1,5.2-1,6.9,0c17.7,10.6,35.2,21.4,52.7,32.4   C334,147,334.9,149.8,335.5,150.9z M229.1,155c0.2,1.1,0.2,1.4,0.3,1.8c4.3,29.3,18.6,52,44.4,67.1c1.1,0.6,3.2,0.7,4.3,0   c26-15.2,40.5-38.1,44.6-67.7c0.1-1-0.7-2.6-1.5-3.2c-14.4-9-28.9-17.9-43.4-26.7c-0.8-0.5-2.5-0.6-3.3-0.1   c-14.6,8.9-29.1,17.9-43.7,26.9C230,153.6,229.4,154.6,229.1,155z"></path>
	<path class="st0" d="M269.8,183.8c8.2-8.2,16-16,23.7-23.8c4.5-4.5,7.9-5.2,10.8-2.1c2.8,3,2.1,6.2-2.3,10.6   c-8.8,8.8-17.6,17.7-26.5,26.5c-4.2,4.2-6.9,4.1-11.1-0.1c-3.1-3.1-6.2-6.2-9.3-9.3c-3.6-3.6-4.1-7-1.4-9.8c2.8-2.9,6.2-2.4,10,1.4   C265.7,179.2,267.5,181.3,269.8,183.8z"></path>
</g>
</svg>
