<?xml version="1.0" encoding="UTF-8"?>
<!-- Generator: Adobe Illustrator 23.0.3, SVG Export Plug-In . SVG Version: 6.00 Build 0)  -->
<svg xmlns="http://www.w3.org/2000/svg" xmlns:xlink="http://www.w3.org/1999/xlink" version="1.1" id="Capa_1" x="0px" y="0px" viewBox="0 0 355.5 359.9" style="enable-background:new 0 0 355.5 359.9;" xml:space="preserve">
<style type="text/css">
	.st0{fill:#FFFFFF;}
</style>
<g>
	<path class="st0" d="M177.8,0c20.5,0,41,0,61.5,0c6.8,0,9.3,2.3,9.7,9.1c1,17.6,14.7,31.1,32.2,32c6.4,0.3,8.8,2.7,8.8,9.1   c0,33.9,0,67.8,0,101.6c0,17.1-7.1,31.5-17.2,44.6c-12.5,16.4-28,29.6-45.3,40.6c-14.5,9.2-29.8,17.2-44.8,25.8   c-2.7,1.6-5.6,2.1-8.6,0.6c-30-14.5-58.1-31.7-81.7-55.6c-11.9-12.1-21.6-25.7-25.2-42.6c-1.1-5-1.5-10.1-1.6-15.2   c-0.1-32.9-0.1-65.8-0.1-98.6c0-7.7,1.9-9.8,9.5-10.2c16.9-1.1,30.5-14.8,31.4-31.6c0.4-7.3,2.8-9.5,10-9.5C137,0,157.4,0,177.8,0z    M210.2,230.9c18.5-12,35.9-24.7,49.7-41.7c10.4-12.8,15.8-27,15.5-43.8c-0.6-28.5-0.2-57-0.2-85.5c0-1.5,0-2.9,0-4.3   c-22.4-5-35.9-18.4-40.8-40.5c-37.8,0-75.6,0-113.3,0c-5,22.3-18.7,35.7-40.8,40.6c0,1.7,0,3.1,0,4.4c0,28.5,0.4,57-0.2,85.5   c-0.3,16.4,5,30.3,15,42.8c13.8,17.3,31.2,30.4,49.9,42.1c0.1,0.1,0.4-0.1,0.7-0.2c0.9-4.7,1.7-9.5,2.9-14.2   c0.5-2.2,0.3-3.5-1.5-5.1c-5.3-4.8-7.3-10.9-6.3-17.9c1.3-9.2,6.7-14.8,15.6-17c0-10.2,0-20.3,0-30.2c-7.4-1.2-14.6-2.1-21.7-3.5   c-2.8-0.6-4.8-0.2-7.2,1.5c-7.3,5.1-15.2,5.5-23.1,1.5c-7.6-3.8-10.7-10.3-10.6-18.7c0.2-15.9,0.1-31.8,0-47.6   c0-6.6,2.5-11.9,7.9-15.8c7.8-5.6,18.3-5.3,26.3,0.2c1.4,1,3.7,1.5,5.3,1.1c29.3-5.7,58.6-6,87.9,0c2.7,0.6,4.5,0.1,6.8-1.5   c7.2-5,14.9-5.4,22.7-1.5c6.8,3.4,10.6,9,10.6,16.8c0.1,16.8,0,33.5,0,50.2c0,6.9-3.1,12.2-8.9,15.9c-7.8,4.9-17.7,4.4-25.4-1.2   c-1-0.7-2.4-1.5-3.6-1.3c-7.4,1.1-14.8,2.3-22.1,3.7c-0.9,0.2-2.4,1.6-2.4,2.4c-0.2,9.2-0.1,18.5-0.1,27.6c0.4,0.3,0.6,0.5,0.8,0.6   c15.4,2.7,21,24.5,8,35.5c-0.6,0.5-1.1,1.7-1,2.4C207.8,219.6,209,224.9,210.2,230.9z M135.7,127.2c0.7,0.3,1,0.6,1.4,0.6   c26.7,5.3,53.5,5.9,80.3,0.5c2.1-0.4,2.5-1.4,2.5-3.3c-0.1-14.4-0.1-28.7,0-43.1c0-1.9-0.5-2.8-2.6-3.2c-26.4-5.2-52.8-5-79.2,0.2   c-0.9,0.2-2.3,1.6-2.3,2.5C135.7,96.6,135.7,111.8,135.7,127.2z M163.5,215.7c-1.2,7.4-2.5,14.3-3.4,21.4c-0.1,1.1,0.8,2.8,1.8,3.4   c4.5,2.6,9.2,5,13.9,7.3c1.1,0.5,2.7,0.6,3.7,0.2c4.9-2.4,9.8-4.9,14.6-7.6c0.8-0.5,1.8-2,1.6-2.8c-1-6.6-2.2-13.3-3.5-19.9   c-0.1-0.7-1.4-1.8-2.2-1.8C181.4,215.7,172.8,215.7,163.5,215.7z M108.8,103.4c0,8,0,16,0,23.9c0,3.8,2.1,5.7,6.2,5.6   c3.9-0.1,5.8-1.8,5.8-5.6c0-16,0-31.9,0-47.9c0-3.8-1.8-5.5-5.8-5.6c-4.2-0.1-6.2,1.7-6.2,5.5C108.8,87.5,108.8,95.5,108.8,103.4z    M234.8,103.3c0,8,0,16,0,24c0,4,2,5.8,6.1,5.7c3.9-0.1,5.9-1.9,5.9-5.6c0-16,0-32,0-48c0-3.7-2-5.5-5.9-5.5c-4,0-6,1.7-6,5.4   C234.7,87.3,234.8,95.3,234.8,103.3z M177.4,200.9c6,0,12,0,17.9,0c3.4,0,5-1.7,4.9-5.1c-0.1-2.9-1.2-5-4.7-4.9   c-11.8,0.1-23.7,0.1-35.5,0c-3.5,0-4.6,1.9-4.7,4.9c-0.1,3.4,1.5,5.1,4.9,5.1C165.9,200.9,171.7,200.9,177.4,200.9z M184,175.9   c0-9.7,0-19.3,0-28.9c-4.3,0-8.4,0-12.4,0c0,9.8,0,19.4,0,28.9C175.9,175.9,179.9,175.9,184,175.9z"></path>
	<path class="st0" d="M48,198.6c11.4-1,17.7,3,21.4,13.3c2.3,6.4,4.6,12.9,7,19.4c2.4,6.5,6.4,11.9,11.9,16.1   c10.1,7.5,17,17.1,20.7,29.1c0.7,2.3,1.9,3.6,4.4,4.3c5.1,1.4,8.7,4.9,10.6,9.8c4,10.4,7.8,20.8,11.6,31.2c1.6,4.4-0.2,8.4-4.2,9.9   c-4.1,1.6-8-0.4-9.8-5c-3.6-9.5-7.2-18.9-10.5-28.4c-1.2-3.5-2.9-4-6.2-2.8c-17.9,6.5-35.9,12.9-53.9,19.4c-4.2,1.5-4.4,2-2.8,6.3   c3.5,9.8,7,19.5,10.4,29.3c1.4,4-0.5,7.7-4.3,9.1c-3.7,1.5-7.5-0.1-9.3-3.9c-0.2-0.3-0.3-0.7-0.4-1c-3.7-10.3-7.4-20.7-11.1-31   c-1.9-5.3-1-10.2,1.8-15.1c0.7-1.2,0.8-3.3,0.3-4.6c-3-7.4-8.8-12.5-14.9-17.5c-11.1-9-17.6-20.7-19.1-34.9   c-0.9-8.7-1.3-17.4-1.5-26.2c-0.8-24.4,1.1-48.7,4.5-72.9C6.1,141.5,16,133.6,27,134.2c10.8,0.6,18.5,8.9,18.9,19.9   c0.4,12.9,1,25.7,1.5,38.6C47.5,194.6,47.8,196.4,48,198.6z M49.9,299.3c15.5-5.5,30.5-10.9,45.7-16.4c-2.4-9.1-6.7-16.7-14.1-22.2   c-10.1-7.5-16.8-17.2-20.7-29.1c-1.8-5.5-3.9-10.8-5.8-16.2c-0.8-2.2-2.5-3.2-4.3-2c-1.1,0.7-1.5,2.6-1.9,4.1   c-0.2,0.6,0.4,1.4,0.7,2.1c4,11.2,8,22.3,11.9,33.5c1.7,4.9,0.1,9.1-4,10.6c-4.2,1.5-8.1-0.6-9.9-5.5c-2.6-7.3-5.1-14.6-7.8-21.9   c-3.5-9.2-6.1-18.4-6.1-28.6c0.1-17.2-1.5-34.4-2.4-51.6c0-0.5,0-1-0.1-1.5c-0.1-3-1.4-5-4.6-5.5c-3.2-0.4-6,1.3-7,4.4   c-0.3,1.1-0.5,2.2-0.6,3.3c-4.2,29.3-5,58.7-3,88.2c0.8,11.8,4.7,22,14.1,29.5C38.4,281.2,45.7,288.8,49.9,299.3z"></path>
	<path class="st0" d="M307.7,198.6c0.4-5.7,0.9-11.1,1.2-16.6c0.4-9,1-18,0.7-27c-0.3-11.4,8.1-20,18.8-20.7   c11.3-0.8,20.9,7.3,22.6,18.6c4.7,32.4,5.9,64.9,3,97.6c-1.3,14.4-7.8,26.2-18.9,35.4c-6.1,5.1-12,10.2-15.3,17.7   c-0.8,1.9-0.9,3.2,0.4,5.1c3.1,4.5,3.6,9.5,1.8,14.7c-3.6,10.4-7.3,20.7-11.1,31c-1.7,4.7-5.6,6.6-9.7,5.1   c-4.1-1.6-5.8-5.5-4.1-10.2c3.4-9.5,6.7-19.1,10.3-28.5c1.3-3.4,0.4-5-2.9-6.1c-18-6.3-36-12.8-53.9-19.2c-4.1-1.5-4.7-1.2-6.3,3.1   c-3.5,9.5-7,19-10.6,28.4c-1.4,3.7-4.5,5.6-7.8,5.2c-3.3-0.4-6.1-2.9-6.5-6.3c-0.1-1.5,0.2-3.2,0.7-4.7c3.6-10,7.3-19.9,11-29.8   c2.1-5.6,6-9.3,11.9-11c1.2-0.3,2.5-1.6,2.9-2.8c4-12.7,11.3-22.9,22.1-30.8c5.6-4.2,9.3-10.1,11.6-16.7c2.1-6,4.3-12,6.4-18   C289.9,201.6,296,197.6,307.7,198.6z M305.7,299.3c4.2-10.4,11.3-17.9,19.6-24.5c8.4-6.7,13.3-15.5,13.9-26.3   c0.6-11.2,1.2-22.4,1.4-33.7c0.3-19.9-1.3-39.7-4.3-59.3c-0.7-4.6-3-6.5-6.9-6.3c-3.5,0.2-4.9,2-5,6.9c-0.8,20.3-1.6,40.6-2.5,60.9   c0,1.2-0.1,2.5-0.5,3.7c-4.5,12.9-9,25.9-13.9,38.7c-0.8,2-3.5,4.1-5.7,4.5c-5.7,1.2-9.7-4.2-7.7-10.1c4.1-11.8,8.4-23.5,12.6-35.2   c0.8-2.3,0.9-4.3-1.8-5.2c-2.4-0.9-3.7,0.4-4.5,2.6c-1.5,4.4-3.3,8.6-4.6,13c-4,13.5-11.4,24.4-22.8,32.9   c-6.9,5.1-10.7,12.6-12.9,21.2C275.3,288.4,290.3,293.8,305.7,299.3z"></path>
	<path class="st0" d="M88.8,313.1c0.1,4.2-3.2,7.7-7.3,7.8c-4.1,0.1-7.7-3.4-7.7-7.5c0-4,3.3-7.4,7.2-7.5   C85.2,305.7,88.7,308.9,88.8,313.1z"></path>
	<path class="st0" d="M274.5,320.9c-4.1,0.1-7.6-3.4-7.6-7.5c0-4,3.1-7.3,7.2-7.5c4.1-0.2,7.7,3.2,7.9,7.3   C282.1,317.1,278.5,320.8,274.5,320.9z"></path>
</g>
</svg>
