<?xml version="1.0" encoding="UTF-8"?>
<!-- Generator: Adobe Illustrator 23.0.3, SVG Export Plug-In . SVG Version: 6.00 Build 0)  -->
<svg xmlns="http://www.w3.org/2000/svg" xmlns:xlink="http://www.w3.org/1999/xlink" version="1.1" id="Capa_1" x="0px" y="0px" viewBox="0 0 384 315.1" style="enable-background:new 0 0 384 315.1;" xml:space="preserve">
<style type="text/css">
	.st0{fill:#FFFFFF;}
</style>
<g>
	<path class="st0" d="M384,8.4c0,92,0,184,0,276c-3,6.5-8.1,8.4-15.1,8.4c-42.9-0.2-85.7,0-128.6-0.2c-14.2-0.1-25.2,5-32.7,17.2   c-2.3,3.7-5.8,5.4-10.1,5.4c-3.6,0-7.2,0-10.9,0c-4.5,0-7.9-1.8-10.3-5.6c-7.3-11.7-18-16.9-31.8-16.9c-43.1,0.1-86.2,0-129.4,0.2   c-7,0-12.1-1.9-15.1-8.4c0-92,0-184,0-276c2.5-5,6-8.3,12.1-8.3C57.2,0.1,102.3,0,147.5,0.2c16.6,0.1,30.5,6.7,41.7,19   c0.9,1,1.8,2,2.8,3.1c0.5-0.5,0.9-0.8,1.2-1.1C205.5,6.5,221.2-0.1,240.3,0c42.9,0.2,85.7,0.2,128.6,0C375.9,0,381,1.9,384,8.4z    M180.8,281.5c0-2,0-3.1,0-4.2c0-73.1,0-146.2,0-219.3c0-20.9-14.4-35.3-35.4-35.3c-39.6,0-79.2,0-118.8,0c-1.3,0-2.6,0-3.9,0   c0,82.8,0,164.9,0,247.5c1.6,0,3.1,0,4.6,0c37,0,74,0.2,110.9-0.1C153.3,269.9,167.6,271.6,180.8,281.5z M361.2,270.1   c0-82.8,0-165,0-247.5c-1.5,0-2.7,0-4,0c-39.4,0-78.7,0-118.1,0c-21.7,0-35.9,14.2-35.9,35.9c0,72.8,0,145.7,0,218.5   c0,1.2,0,2.4,0,4c0.9-0.4,1.3-0.6,1.7-0.9c10.6-7.2,22.3-10.2,35-10.1c38.9,0.1,77.7,0,116.6,0C358,270.1,359.5,270.1,361.2,270.1z   "></path>
	<path class="st0" d="M101.2,157.6c-14.5,0-29,0-43.4,0c-7.6,0-12.7-4.5-12.8-11.2c0-6.7,5.1-11.3,12.6-11.3c29.3,0,58.7,0,88,0   c7.5,0,12.7,4.7,12.6,11.4c-0.1,6.6-5.1,11.1-12.5,11.1C130.9,157.6,116.1,157.6,101.2,157.6z"></path>
	<path class="st0" d="M101.7,202.6c-14.6,0-29.2,0-43.8,0c-7.6,0-12.8-4.5-12.8-11.1c-0.1-6.8,5.1-11.4,13-11.4c29.3,0,58.7,0,88,0   c8.9,0,14.5,7.6,11.5,15.3c-1.8,4.5-5.8,7.2-11.2,7.2C131.4,202.6,116.5,202.6,101.7,202.6z"></path>
	<path class="st0" d="M102,225.1c14.5,0,29,0,43.4,0c7.6,0,12.7,4.5,12.8,11.2c0,6.7-5.1,11.3-12.6,11.3c-29.3,0-58.7,0-88,0   c-7.5,0-12.6-4.7-12.6-11.4c0.1-6.5,5.2-11.1,12.5-11.1C72.3,225.1,87.2,225.1,102,225.1z"></path>
	<path class="st0" d="M117.5,79c3.1,2.9,5.8,5.1,8.2,7.7c4.6,4.8,4.5,11.8,0,16.1c-4.4,4.2-11.1,4.2-15.9-0.3   c-2.5-2.4-4.8-5.1-7.6-8c-2.7,2.7-5.1,5.1-7.4,7.4c-5.2,5.1-12.1,5.4-16.7,0.8S73.8,91.2,78.9,86c2.3-2.3,4.7-4.4,7.6-7.1   c-2.9-2.7-5.4-5-7.7-7.3c-4.9-5-5.2-11.8-0.8-16.4c4.5-4.7,11.5-4.5,16.7,0.5c2.3,2.3,4.4,4.7,7.1,7.5c2.6-2.6,4.9-4.9,7.1-7.1   c5.4-5.3,12.3-5.7,17-1.1s4.3,11.6-1,17C122.6,74.2,120.2,76.4,117.5,79z"></path>
	<path class="st0" d="M282.3,135.1c14.6,0,29.2,0,43.8,0c7.7,0,12.8,4.4,12.8,11.1c0.1,6.8-5.1,11.4-13,11.4c-29.3,0-58.7,0-88,0   c-8.9,0-14.5-7.6-11.5-15.3c1.8-4.5,5.8-7.2,11.2-7.2C252.6,135.1,267.5,135.1,282.3,135.1z"></path>
	<path class="st0" d="M282.4,202.6c-14.6,0-29.2,0-43.8,0c-7.6,0-12.7-4.5-12.8-11.2c-0.1-6.7,5.1-11.3,12.6-11.3   c29.3,0,58.7,0,88,0c7.5,0,12.7,4.7,12.6,11.4c-0.1,6.6-5.1,11.1-12.4,11.1C311.8,202.6,297.1,202.6,282.4,202.6z"></path>
	<path class="st0" d="M282.4,225.1c14.7,0,29.5,0,44.2,0c7.3,0,12.4,4.6,12.4,11.1c0.1,6.6-5,11.3-12.2,11.4c-29.6,0-59.2,0-88.8,0   c-9,0-14.8-8-11.3-15.7c2.1-4.7,5.9-6.8,11.1-6.8C252.6,225.1,267.5,225.1,282.4,225.1z"></path>
	<path class="st0" d="M275,84.3c7-9.3,13.6-18.2,20.3-27c1.9-2.5,3.7-5,5.6-7.5c4.2-5.2,10.9-6.2,15.9-2.4c4.9,3.7,6,10.5,2.1,15.7   c-11.1,15.1-22.4,30.1-33.7,44.9c-4.4,5.8-11.8,6.2-17,1c-7.4-7.2-14.7-14.6-22-22c-4.7-4.8-4.8-11.7-0.4-16.1   c4.6-4.6,11.4-4.5,16.4,0.4C266.4,75.5,270.5,79.7,275,84.3z"></path>
</g>
</svg>
