<?xml version="1.0" encoding="UTF-8"?>
<!-- Generator: Adobe Illustrator 23.0.3, SVG Export Plug-In . SVG Version: 6.00 Build 0)  -->
<svg xmlns="http://www.w3.org/2000/svg" xmlns:xlink="http://www.w3.org/1999/xlink" version="1.1" id="Capa_1" x="0px" y="0px" viewBox="0 0 340.8 384" style="enable-background:new 0 0 340.8 384;" xml:space="preserve">
<style type="text/css">
	.st0{fill:#FFFFFF;}
</style>
<g>
	<path class="st0" d="M200.4,384c-6.6-3.4-13.3-6.8-20-10.2c-10.6,10.2-25.2,7.9-32.3-5.4c-14.7,2.4-21.2-1.1-26.3-14.4   c-11,0.4-18.2-4.6-21.5-15.6c-9.8,0.5-17.2-3.3-20.7-12.9c-3.5-9.6,1.8-16.8,8.2-24.7c-2.2,0-3.6-0.4-4.6,0.1   c-7.9,3.9-15.4,3.2-22.8-1.2c-3.4-2.1-6.9-4-10.3-6.1c-6.3-4-8.1-10.8-4.3-17.2c15.8-26.8,31.6-53.6,47.5-80.3   c3.9-6.5,10.8-8.2,17.5-4.5c3.8,2.1,7.6,4.4,11.3,6.7c7.3,4.5,11,11.1,10.8,19.7c-0.1,2.4,0.7,3.6,2.7,4.7   c4.9,2.6,9.9,3.2,15.2,1.3c3.6-1.3,7.3-2.7,10.8-4.2c9.3-3.9,18.3-3.3,26.9,1.8c2.7,1.6,5.1,1.7,8.1,0.8c4.6-1.4,9.5-2.2,14.1-3.6   c7.1-2.1,13.8-1.4,20.4,1.4c3.7,1.6,7.4,3.3,11.2,4.2c3.2,0.8,6.7,0.4,10.6,0.6c-2-9.2-1.3-17.2,5.3-22.7c5.6-4.8,12.3-8.5,19-11.8   c5.4-2.6,11.2,0.4,14.7,6.4c12.6,21.1,25.1,42.3,37.6,63.5c3,5.2,6.1,10.3,9.1,15.5c4.1,7.2,2.4,14-4.7,18.3   c-3.6,2.2-7.3,4.4-11,6.5c-4.7,2.7-9.9,4.1-15.1,2.4c-4.9-1.6-8,1-11.6,3.4c5.2,7.9,6,15.8,0.3,23.5c-5.4,7.2-12.9,9-21.6,6.6   c-3.2,11.9-10.8,17.8-23.7,16.4c-1.2,6.5-4.1,11.9-10.3,15c-6,3.1-12,2.8-18.4-0.2c-1.6,8.9-7.2,14-15.4,16.5   C204.9,384,202.6,384,200.4,384z M187.4,364.3c3.7,2.2,7.4,4.5,11.2,6.6c4.9,2.8,9.4,2,11.7-2.1c2.2-4,0.8-8.2-3.8-11   c-3.2-2-6.5-3.7-9.6-5.8c-3-1.9-3.7-5.1-2.1-7.8c1.6-2.7,4.7-3.4,7.9-1.8c0.9,0.4,1.7,1,2.6,1.5c7.6,4.5,15.2,9.1,22.9,13.5   c4,2.3,8.3,1.1,10.5-2.4c2.3-3.6,1.1-8.1-2.8-10.7c-0.9-0.6-1.9-1.1-2.9-1.7c-8.1-4.8-16.1-9.5-24.2-14.3c-2.5-1.5-4.1-3.9-2.9-6.5   c0.8-1.8,2.8-3.5,4.7-4.1c1.4-0.4,3.6,0.7,5.1,1.6c11.6,6.8,23.2,13.7,34.8,20.5c4.9,2.9,9.4,2,11.8-2c2.4-4.1,0.9-8.3-4-11.2   c-10.5-6.3-21.1-12.5-31.6-18.7c-1.7-1-3.5-2-5.1-3.1c-2.6-1.9-3.2-4.4-1.8-7.3c1.4-2.7,4.4-3.6,7.4-2.3c1,0.5,2,1.1,2.9,1.7   c15.3,9,30.5,18.1,45.8,27c1.9,1.1,4.4,1.9,6.6,1.9c3.3-0.1,5.4-2.4,6.3-5.6c0.9-3.5-0.5-6.6-4.2-8.8   c-12.1-7.2-24.3-14.4-36.4-21.6c-12.3-7.3-24.7-14.6-36.9-21.9c-0.3,0.2-0.5,0.2-0.5,0.3c-0.5,1-1,2-1.6,3   c-4.5,8-11.2,12.6-20.5,13.2c-8.1,0.5-13.6-4.5-13.7-12.7c-0.1-5.1,0.1-10.2,0-15.4c-0.2-9.1-0.4-18.1,6.4-25.5   c-4.2-2.5-8.2-2.9-12.3-1.6c-3.9,1.2-7.8,2.7-11.6,4.2c-5.9,2.5-12,3.8-18.3,2.4c-3.8-0.9-7.4-2.5-11.4-3.9   c-11.6,19.7-23.3,39.4-35.6,60.1c2.1,0,3.4,0.2,4.7,0c2.4-0.5,4.8-1.5,7.2-1.7c7.5-0.5,13.1,3.1,17.4,9c12.5-9.9,28-5,32.4,10.1   c17.1,1.7,22.6,8.4,20.9,25.5C188.7,339.3,193.4,351.6,187.4,364.3z M186.5,272.9c4.4,0.6,8.2-0.8,10.3-3.9c2.1-3,3.2-6.9,4-10.5   c1-4.7,4.4-6.8,8.8-4.6c0.9,0.4,1.7,1,2.6,1.5c23.6,14,47.3,28,70.9,42c1.1,0.7,2.9,1.5,3.9,1c2.3-1,4.4-2.6,6.7-4.1   c-0.8-1.3-1.3-2.4-2-3.5c-5.4-9.1-10.8-18.3-16.2-27.4c-1.5-2.6-2-5.6,0.6-7.4c1.6-1.1,4.4-1.3,6.4-0.9c1.2,0.2,2.4,2.1,3.2,3.4   c5.5,9.1,10.8,18.3,16.2,27.4c4,6.7,9.8,8.1,16.6,4.2c2.7-1.6,5.3-3.4,8.1-4.7c2.8-1.4,3-2.7,1.4-5.4c-15.1-25.3-30.1-50.7-45.1-76   c-0.6-1-1.3-2-2.1-3.1c-3.9,2.3-7.4,4.3-11,6.5c-7,4.2-8.5,9.9-4.3,17.1c2,3.4,4,6.6,5.9,10c1.5,2.9,0.5,6-2,7.5   c-2.5,1.5-5.7,0.8-7.6-1.8c-0.7-1-1.4-2.1-1.9-3.2c-0.9-2.1-2.1-2.1-4.4-1.8c-4.9,0.7-10,1.2-14.8,0.5c-4.9-0.8-9.6-3.5-14.5-4.9   c-3.1-0.9-6.7-1.9-9.8-1.3c-6.6,1.1-13.1,3-19.6,4.9c-6,1.7-9.9,5.8-10.2,12C186.2,254.9,186.5,263.7,186.5,272.9z M103.8,200.6   c-16.4,27.7-32.6,55-49,82.7c3.8,2.3,7.2,4.3,10.6,6.3c7.8,4.6,13.2,3.2,17.9-4.5c9.9-16.6,19.7-33.3,29.6-50   c2.4-4.1,4.9-8.1,7.2-12.3c2.7-5.1,1.8-10.6-2.6-13.8C113.3,205.9,108.6,203.5,103.8,200.6z M142.8,313.5c-0.5-4-2.1-6.6-5.4-7.7   c-3.5-1.2-6.5-0.1-8.6,2.8c-5.2,7-10.3,14.1-15.3,21.2c-2.9,4.1-2.4,8.7,1.1,11.3c3.7,2.8,8.2,1.9,11.3-2.5   c5-6.8,10-13.7,14.8-20.7C141.8,316.5,142.2,314.7,142.8,313.5z M156.1,320.4c-1.8,1-4,1.7-5.2,3.2c-5.8,7.6-11.4,15.4-16.8,23.4   c-2.2,3.2-1,7.4,1.9,9.7c3.1,2.4,7.7,2.2,10.1-0.9c5.9-7.7,11.7-15.6,16.9-23.7C166.4,327.1,162.2,320.9,156.1,320.4z M97.7,327.6   c1.8-1,4.1-1.5,5.3-3c3.2-3.8,6.1-7.9,8.7-12.1c2.1-3.3,0.9-7.4-2.2-9.6c-3.2-2.3-7.6-2-10.1,1.1c-3,3.8-6,7.7-8.5,11.8   C88,320.9,91.7,327,97.7,327.6z M158.3,362c0,2.4,1.6,4.8,4.6,6.1c3,1.3,6.1,0.9,8.2-1.6c2.5-2.9,4.8-6.1,6.7-9.4   c1.7-2.8,1.1-5.8-1.1-8.3c-2.2-2.5-5.1-3-8.2-2.1C165.3,347.6,158.4,357.4,158.3,362z"></path>
	<path class="st0" d="M202.6,0c7.2,2,12.4,7,17.5,12.2c15.5,15.7,31.2,31.4,46.9,46.9c5.7,5.6,8.4,12.1,8.4,20.1   c-0.1,30.5,0,61-0.1,91.5c0,1.2,0.1,2.6-0.2,3.7c-0.7,2.9-2.7,4.6-5.7,4.4c-3-0.1-4.9-1.9-5.3-4.8c-0.2-1.2-0.1-2.5-0.1-3.7   c0-29.9,0-59.7,0-89.6c0-1.5,0-3,0-4.9c-1.5-0.1-2.8-0.2-4.1-0.2c-9.9,0-19.8,0-29.6,0c-18.1-0.1-30.4-12.2-30.5-30.3   c-0.1-11.1,0-22.2,0-33.9c-1.6,0-2.9,0-4.3,0c-55,0-110,0-165,0c-12.2,0-19.3,7-19.3,19.3c0,98.3,0,196.7,0,295.1   c0,12,7.1,19.1,19.1,19.2c18.4,0,36.7,0,55.1,0.1c1.8,0,3.9,0.2,5.3,1.1c3.6,2.2,3,7.8-0.9,9.5c-1.2,0.5-2.7,0.7-4,0.7   c-18.9,0-37.7,0.1-56.6,0c-14.5-0.1-25.9-9.4-28.7-23.2C0,330.2,0,327.4,0,324.7C0,227,0,129.2,0,31.5c0-16.8,7.3-26.4,23.6-31   c0.2-0.1,0.4-0.3,0.6-0.5C83.6,0,143.1,0,202.6,0z M211.5,21c0,9.2-0.4,18.9,0.1,28.5c0.4,6.8,6.1,13.4,12.8,13.9   c10.1,0.8,20.3,0.2,29.8,0.2C240.2,49.6,225.8,35.2,211.5,21z"></path>
	<path class="st0" d="M137.7,149.3c-29.7,0-59.5,0-89.2,0c-1.1,0-2.3,0.1-3.4-0.1c-3-0.4-4.8-2.3-5-5.2c-0.2-2.8,1.3-4.8,4-5.6   c1.2-0.4,2.5-0.4,3.7-0.4c59.8,0,119.7,0,179.6,0c1.4,0,2.8,0,4.1,0.4c2.7,0.9,4,3,3.7,5.8c-0.3,2.9-2,4.5-4.8,4.9   c-1.2,0.2-2.5,0.1-3.7,0.1C196.9,149.3,167.3,149.3,137.7,149.3z"></path>
	<path class="st0" d="M138.2,103.4c29.6,0,59.2,0,88.8,0c1.5,0,3.5-0.4,4.4,0.4c1.6,1.4,3.6,3.6,3.5,5.4s-2.3,3.7-3.9,5.1   c-0.9,0.7-2.6,0.4-4,0.4c-59.5,0-119,0-178.4,0c-0.8,0-1.5,0-2.2,0c-3.7-0.2-6.2-2.5-6.2-5.7c0-3.2,2.5-5.5,6.3-5.5   c18.6-0.1,37.2,0,55.9,0C114.2,103.4,126.2,103.4,138.2,103.4z"></path>
	<path class="st0" d="M91.7,64.2c14.2,0,28.5,0,42.7,0c1.5,0,3,0,4.5,0.3c2.8,0.6,4.7,2.6,4.2,5.3c-0.4,2-2.2,3.9-3.8,5.3   c-0.8,0.7-2.6,0.5-4,0.5c-29.1,0-58.2,0-87.3,0c-1.4,0-3.2,0.2-4-0.5c-1.6-1.4-3.5-3.3-3.8-5.3c-0.4-2.6,1.4-4.7,4.3-5.2   c1.3-0.3,2.7-0.2,4.1-0.2C63,64.2,77.3,64.2,91.7,64.2z"></path>
</g>
</svg>
