<?xml version="1.0" encoding="UTF-8"?>
<!-- Generator: Adobe Illustrator 23.0.3, SVG Export Plug-In . SVG Version: 6.00 Build 0)  -->
<svg xmlns="http://www.w3.org/2000/svg" xmlns:xlink="http://www.w3.org/1999/xlink" version="1.1" id="Capa_1" x="0px" y="0px" viewBox="0 0 361.5 384" style="enable-background:new 0 0 361.5 384;" xml:space="preserve">
<style type="text/css">
	.st0{fill:#FFFFFF;}
</style>
<g>
	<path class="st0" d="M337.5,0c1.9,0.6,3.8,1.1,5.7,1.8c10.7,3.9,18,14.1,18.3,25.5c0,0.8,0,1.5,0,2.2c0,108.3,0,216.5,0,324.7   c0,15.5-9.3,26.9-24.1,29.3c-1.8,0.3-3.7,0.3-5.6,0.3c-85.8,0-171.5,0-257.2,0c-15.4,0-26.8-9.4-29.3-24.1c-0.2-1-0.2-2-0.3-3   c-0.1-3.8,2-6.4,5.2-6.6c3.3-0.3,5.7,2.1,6.1,6.1c0.9,9.7,7.6,16.3,17.1,16.3c78.5,0,157,0,235.5,0c0.4,0,0.7-0.1,1.5-0.1   c-0.5-1-1-1.8-1.3-2.6c-1.3-4.8-3.2-9.5-3.7-14.3c-0.6-7.2-0.1-14.5-0.2-21.7c-0.1-9.6-7-17-16.1-17.4c-9.4-0.4-16.8,6.4-17.6,16.2   c-0.4,4.7-2.3,6.3-7.4,6.3c-33.7,0-67.5,0-101.2,0c-51.5,0-103,0-154.5,0c-7,0-9.2-2.5-8.1-9.5c2.3-14.3,13.6-24.2,28.1-24.2   c86.6,0,173.2-0.1,259.9,0c16,0,28.1,12.3,28.3,28.4c0.1,7,0,14,0,21c0,10.5,7.2,18.1,16.9,18.1c9.7,0,16.8-7.6,16.8-18.1   c0-101.9,0-203.7,0-305.6c0-6.8,0-13.5,0-20.2c-0.1-9.6-6.9-17-16-17.5c-9.4-0.4-16.9,6.4-17.7,16.1c-0.4,4.8-2.3,6.4-7.8,6.4   c-43.5,0-87,0-130.5,0c-24.1,0-48.2,0-72.4,0c-1.4,0-2.7,0-4.6,0c0,1.7,0,3.3,0,4.9c0,82.2,0,164.5,0,246.7c0,5.8-1.7,8.5-5.5,8.6   c-3.9,0.1-5.8-2.7-5.8-8.6c0-82.2,0-164.5,0-246.7c0-1.5,0-3,0-4.8c-4.3,0-8.2,0-12.2,0c-8.5,0-17,0-25.5,0c-5.6,0-7.7-2.3-7.2-7.9   c0.9-11.7,9.5-22,21.1-25C67.1,0.6,68.1,0.3,69,0C158.5,0,248,0,337.5,0z M57.9,22.3c82.6,0,165.2,0,247.6,0   c1.6-3.7,3.1-7.3,4.8-11.1c-1.2,0-2.2,0-3.2,0c-77.4,0-154.8,0-232.1,0c-1.1,0-2.2,0-3.4,0.1C65,11.9,59.3,16.4,57.9,22.3z    M265.3,316.5c-1.3,0-2.4,0-3.5,0c-77.2,0-154.5,0-231.8,0c-1.1,0-2.2,0-3.4,0.1c-6.6,0.6-12.3,5-13.8,11c82.6,0,165.2,0,247.6,0   C262,324,263.6,320.5,265.3,316.5z"></path>
	<path class="st0" d="M237.9,85.2c0,18.9,0,37.4,0,56c18.7,0,37.3,0,56.1,0c0-5.9,0-11.5,0-17.1c0-4.6,2.2-7.2,5.8-7.1   c3.5,0.1,5.4,2.6,5.5,7.1c0,7.2,0,14.5,0,21.7c0,4.6-2,6.8-6.5,6.8c-21.9,0.1-43.7,0.1-65.6,0c-4.6,0-6.6-2.1-6.6-6.8   c0-21.7,0-43.5,0-65.2c0-4.6,2-6.7,6.6-6.7c15-0.1,30-0.1,45,0c4.1,0,6.5,2.2,6.5,5.6c0,3.3-2.4,5.6-6.6,5.6   c-11.6,0.1-23.2,0-34.9,0C241.6,85.2,239.9,85.2,237.9,85.2z"></path>
	<path class="st0" d="M237.9,197.7c0,18.9,0,37.4,0,56c18.7,0,37.3,0,56.1,0c0-5.9,0-11.5,0-17.1c0-4.6,2.2-7.2,5.8-7.1   c3.5,0.1,5.4,2.6,5.5,7.1c0,7.2,0,14.5,0,21.7c0,4.6-2,6.8-6.5,6.8c-21.9,0.1-43.7,0.1-65.6,0c-4.6,0-6.6-2.1-6.6-6.8   c0-21.7,0-43.5,0-65.2c0-4.6,2-6.7,6.6-6.7c15-0.1,30-0.1,45,0c4.1,0,6.5,2.2,6.5,5.6c0,3.4-2.4,5.6-6.6,5.6   c-11.6,0.1-23.2,0-34.9,0C241.6,197.7,239.9,197.7,237.9,197.7z"></path>
	<path class="st0" d="M265.6,116.9c13.4-13.5,26.2-26.3,39-39.1c4.2-4.2,7.5-4.9,10.2-2.2c2.7,2.8,2.1,5.8-2.3,10.2   c-13.6,13.6-27.2,27.2-40.8,40.8c-4.6,4.6-7,4.6-11.6,0.1c-3-3-6.1-5.9-9-9c-2.7-2.8-2.8-6-0.5-8.3c2.2-2.3,5.6-2.3,8.3,0.3   C261.2,111.9,263.2,114.3,265.6,116.9z"></path>
	<path class="st0" d="M265.7,229.3c13.2-13.2,25.9-26,38.6-38.7c1.1-1.1,2.1-2.2,3.3-3.1c2.5-1.7,5-1.6,7.2,0.5s2.3,4.6,0.6,7.1   c-0.6,0.9-1.5,1.7-2.3,2.5c-13.9,13.9-27.7,27.8-41.6,41.6c-4.4,4.4-6.9,4.4-11.3-0.1c-3-3-6.1-6-9-9c-2.7-2.8-2.9-5.9-0.6-8.3   c2.3-2.4,5.7-2.3,8.6,0.5C261.4,224.5,263.3,226.7,265.7,229.3z"></path>
	<path class="st0" d="M181.2,73.9c9,0,18,0,27,0c4.5,0,7,2,7.1,5.4c0.1,3.6-2.5,5.8-7.1,5.8c-18.2,0.1-36.4,0.1-54.7,0   c-5.7,0-9-4.4-6.2-8.2c1.1-1.6,3.9-2.8,5.9-2.9C162.4,73.8,171.8,73.9,181.2,73.9z"></path>
	<path class="st0" d="M180.8,96.4c9,0,18,0,27,0c4.8,0,7.4,1.9,7.4,5.4s-2.5,5.8-7.2,5.8c-18.2,0.1-36.4,0.1-54.7,0   c-5.7,0-9-4.4-6.2-8.3c1.2-1.6,3.9-2.8,5.9-2.8C162.4,96.3,171.6,96.4,180.8,96.4z"></path>
	<path class="st0" d="M180.8,118.9c9.1,0,18.2,0,27.3,0c4.5,0,7,1.9,7.1,5.4c0.1,3.6-2.5,5.8-7.1,5.8c-18.2,0.1-36.4,0.1-54.7,0   c-5.7,0-9.1-4.3-6.3-8.2c1.1-1.6,3.9-2.8,5.9-2.9C162.3,118.8,171.5,118.9,180.8,118.9z"></path>
	<path class="st0" d="M180.6,152.7c-8.6,0-17.2,0-25.8,0c-1.5,0-3,0-4.4-0.4c-2.7-0.8-4.5-3-3.8-5.6c0.5-1.9,2.6-3.6,4.2-4.9   c0.8-0.6,2.4-0.3,3.6-0.3c17.6,0,35.2,0,52.8,0c1,0,2,0,3,0.1c3,0.4,4.8,2.2,5,5.1c0.2,3.1-1.5,5.2-4.7,5.8   c-1.2,0.2-2.5,0.2-3.7,0.2C198,152.7,189.3,152.7,180.6,152.7z"></path>
	<path class="st0" d="M180.8,186.4c9.1,0,18.2,0,27.3,0c4.6,0,7,1.9,7.1,5.4c0.1,3.6-2.5,5.8-7.1,5.9c-18.2,0.1-36.4,0.1-54.7,0   c-5.6,0-8.6-3.8-6.6-8c1.2-2.6,3.5-3.3,6.2-3.3C162.3,186.4,171.5,186.4,180.8,186.4z"></path>
	<path class="st0" d="M180.7,220.2c-8.7,0-17.5,0-26.2,0c-1.5,0-3.4,0.3-4.4-0.5c-1.6-1.4-3.6-3.6-3.5-5.4c0.1-1.8,2.4-3.6,4-5   c0.7-0.6,2.2-0.3,3.3-0.3c18,0,35.9,0,53.9,0c0.9,0,1.8,0,2.6,0.1c3,0.5,4.7,2.4,4.8,5.3c0.1,3-1.6,5-4.6,5.5c-1.9,0.3-4,0.3-6,0.3   C196.7,220.2,188.7,220.2,180.7,220.2z"></path>
	<path class="st0" d="M180.9,231.4c9.4,0,18.7-0.2,28.1,0.1c1.9,0.1,4.3,1.5,5.4,3c0.9,1.2,0.6,4.1-0.3,5.4c-0.9,1.4-3.3,2.5-5,2.5   c-18.9,0.2-37.7,0.2-56.5,0.1c-3.9,0-6.2-2.4-6.2-5.6c0-3.4,2.4-5.6,6.5-5.6C162.2,231.4,171.6,231.4,180.9,231.4z"></path>
	<path class="st0" d="M180.9,253.9c9.4,0,18.7-0.2,28.1,0.1c1.9,0.1,4.3,1.5,5.4,3c0.9,1.2,0.6,4.1-0.3,5.4c-0.9,1.4-3.3,2.5-5,2.5   c-18.9,0.2-37.7,0.2-56.5,0.1c-3.9,0-6.2-2.4-6.2-5.6c0-3.4,2.4-5.6,6.5-5.6C162.2,253.9,171.6,253.9,180.9,253.9z"></path>
</g>
</svg>
