<?xml version="1.0" encoding="UTF-8"?>
<!-- Generator: Adobe Illustrator 23.0.3, SVG Export Plug-In . SVG Version: 6.00 Build 0)  -->
<svg xmlns="http://www.w3.org/2000/svg" xmlns:xlink="http://www.w3.org/1999/xlink" version="1.1" id="Capa_1" x="0px" y="0px" viewBox="0 0 352.7 371.9" style="enable-background:new 0 0 352.7 371.9;" xml:space="preserve">
<style type="text/css">
	.st0{fill:#FFFFFF;}
</style>
<g>
	<path class="st0" d="M0,172.6C0,120.2,0,67.8,0,15.4C0,4.6,4.5,0.1,15.6,0.1c66.8,0,133.5,0,200.2-0.1c5.7,0,10,1.8,13.9,5.8   C241,17.4,252.4,28.7,263.9,40c3.7,3.6,5.2,7.6,5.2,12.7c-0.1,35.4,0,70.8-0.1,106.1c0,2.9,0.8,4.4,3.6,5.5   c24.5,10.4,48.8,21,73.4,31.2c4.8,2,6.9,4.7,6.8,10.1c-0.3,20.6-0.4,41.2,0,61.9c1,51.1-34.4,94.5-87.5,104.1   c-3.6,0.6-7.6-0.6-11.4-1.5c-16.6-4.1-31.5-11.7-44.7-22.7c-1.5-1.3-4-2.1-6-2.1c-62.6-0.1-125.2-0.1-187.9-0.1   c-11,0-15.4-4.4-15.4-15.5C0,277.3,0,224.9,0,172.6z M194.8,333c-3.7-6.3-7.3-12.1-10.5-18.1c-1.4-2.6-2.8-3.5-5.7-3.4   c-45.2,0.1-90.5,0.1-135.7,0.1c-1.5,0-3,0.1-4.5-0.1c-3.2-0.4-5-2.4-5.2-5.5c-0.2-3.1,1.4-5.3,4.5-6c1.5-0.4,3.2-0.3,4.8-0.4   c43.6,0,87.2,0,130.9,0c1.4,0,2.9,0,4.5,0c-1.2-6-2.4-11.5-3.6-17.3c-1.5,0-3,0-4.4,0c-42.5,0-85,0-127.5,0c-1.4,0-2.8,0.1-4.1-0.1   c-3-0.4-4.7-2.3-5.1-5.2c-0.3-2.9,1-5.2,3.9-6.1c1.6-0.5,3.4-0.6,5.2-0.6c42.4,0,84.7,0,127.1,0c1.4,0,2.9,0,4.4,0   c0-6,0-11.5,0-17.3c-1.7,0-3.2,0-4.6,0c-42.2,0-84.5,0-126.7,0c-1.2,0-2.5,0.1-3.8-0.1c-3.3-0.4-5.2-2.4-5.4-5.6   c-0.2-3.1,1.6-5.2,4.6-6c1.4-0.4,3-0.3,4.5-0.3c42.4,0,84.7,0,127.1,0c1.4,0,2.9,0,4.4,0c0-6,0-11.5,0-17.3c-1.7,0-3.2,0-4.6,0   c-42.2,0-84.5,0-126.7,0c-1.2,0-2.5,0.1-3.8-0.1c-3.3-0.4-5.2-2.4-5.4-5.6c-0.2-3.1,1.6-5.2,4.6-6c1.4-0.4,3-0.3,4.5-0.3   c42.4,0,84.7,0,127.1,0c1.4,0,2.9,0,4.9,0c0-4-1-7.9,0.3-10.9c1.2-2.7,4.8-4.3,7.3-6.4c-1.2,0-2.6,0-3.9,0c-45.6,0-91.2,0-136.9,0   c-5.1,0-7.9-2.1-7.9-6c0-3.8,2.8-6,7.9-6c1,0,2,0,3,0c54.7,0,109.5,0,164.2,0c2.1,0,4.3-0.3,6.2-1.1c13.1-5.5,26.1-11.2,39.3-16.7   c2.6-1.1,3.5-2.3,3.5-5.2c-0.1-33.9-0.1-67.8-0.1-101.6c0-1.2,0-2.4,0-4c-1.9,0-3.2,0-4.6,0c-8.6,0-17.2,0-25.9,0   c-7.8,0-11.2-3.5-11.3-11.2c0-8.1,0-16.2,0-24.4c0-2,0-3.9,0-5.8c-68.1,0-135.6,0-203,0c0,107.1,0,213.9,0,320.7   C73.3,333,134.1,333,194.8,333z M340,243c0.2,0,0.4,0,0.6,0c0-11-0.1-22,0.1-33c0-2.6-0.8-3.9-3.2-5   c-23.9-10.1-47.7-20.4-71.6-30.5c-1.5-0.6-3.7-0.6-5.2,0c-23.9,10.1-47.7,20.4-71.6,30.5c-2.4,1-3.2,2.3-3.2,4.9   c0.1,19.7-0.1,39.5,0.2,59.2c0.1,6.7,0.5,13.6,2.1,20c9.4,38.3,34.4,60.7,72.1,69.9c2.3,0.6,5,0.4,7.3-0.2c5.4-1.4,10.9-2.9,16-5.1   c32.3-14.1,52.1-38.2,56.2-73.5C341.2,268.1,340,255.5,340,243z M227.6,21.5c0,6.8,0,13.3,0,19.9c6.8,0,13.4,0,20,0   C240.8,34.7,234.3,28.1,227.6,21.5z"></path>
	<path class="st0" d="M59.3,121.7c-1.3-0.6-2.4-1.2-3.4-1.8c-6.1-3.6-9.4-8.8-9.4-15.9c0-1.7,0-3.6,0.4-5.2   c1.4-5.6,0.2-10.6-2.7-15.4c-1.2-1.9-2.1-4-2.7-6.2c-1.9-7.4,0.2-13.7,6-18.5c5.1-4.3,8.2-9.3,9.5-15.9C59,32.1,65,27.3,76,27.1   c6.1-0.1,11.2-1.9,16.1-5.9c8.6-7,16.5-7,25.1-0.1c5.1,4.1,10.4,5.8,16.8,5.9c10.1,0.2,16.4,5.3,18.4,15.3   c1.3,6.7,4.3,11.9,9.5,16.3c7.5,6.5,8.9,14.5,4.1,23.3c-3.2,5.8-4.5,11.6-3.3,18.2c1.6,8.8-2,15.6-9.8,20.2   c3.7,8.7,7.3,17.2,11,25.6c1.2,2.8,2.1,5.4,0,8.1c-2.1,2.7-5,2.4-7.9,1.8c-3.8-0.8-7.6-1.7-11.4-2.2c-1.1-0.1-2.8,0.6-3.5,1.4   c-2.4,3.5-4.3,7.4-6.9,10.7c-1.4,1.7-4,3.6-5.9,3.4s-4.4-2.4-5.3-4.3c-3.4-7.1-6.5-14.3-9.4-21.6c-1.7-4.3-5.6-3.7-8.8-4.2   c-2.8-0.5-4.3,1.4-5.4,4c-4.2,9.3-8.6,18.6-12.9,27.9c-1.2,2.5-2.6,4.5-5.7,4.7c-3.2,0.2-5-1.7-6.4-4.3c-1.9-3.4-4-6.6-5.8-10.1   c-1.1-2.1-2.4-2.4-4.5-2c-4,0.9-8.1,1.6-12.2,2.1c-6.1,0.8-9.2-3.5-6.7-9.1c4.1-9,8.3-17.9,12.5-26.8   C58.2,124.3,58.7,123.1,59.3,121.7z M58.4,103.5c-0.4,3.4,1.7,5.6,5.1,6.7c8.5,2.7,14.8,7.9,19.1,15.8c2.7,4.8,4.7,5.5,9.9,3.6   c8.1-3,15.9-3.2,24.1-0.1c5.4,2.1,7.4,1.3,10.2-3.7c4.2-7.6,10.3-12.6,18.5-15.5c5.3-1.9,6.4-3.6,5.4-9.1   c-1.7-8.8-0.2-16.8,4.4-24.4c2.6-4.3,2.1-6.6-1.8-9.8c-7-5.6-11.1-12.6-12.4-21.5c-0.8-5.2-2.7-6.6-7.9-6.6   c-8.6,0-16.1-2.4-22.7-8.1c-4.6-4-6.7-4-11.5,0.1c-6.4,5.5-13.7,7.9-22,7.9c-6,0-7.4,1.2-8.5,7.2c-1.4,7.8-4.6,14.3-10.8,19.5   c-6,5-6.2,6.1-2.3,13c3.7,6.6,5.2,13.4,3.6,20.9C58.5,100.7,58.5,101.8,58.4,103.5z M86.4,142.2c-9-0.9-12.6-7.6-16.9-13.9   c-3.1,6.7-5.9,12.9-9.4,20.4c10.3-5,16.1-1.3,19.4,8.5C82.1,151.6,84.1,147.2,86.4,142.2z M125.8,141.7c1.4,3.2,2.5,5.7,3.6,8.3   c2.6-3.2,4.5-7.3,7.6-8.7c3.2-1.5,7.6-0.3,11.6-0.3c-2-4.7-4.3-9.9-6.7-15.6C136.8,131.7,134.2,139.4,125.8,141.7z"></path>
	<path class="st0" d="M323.4,268.5c-0.1,33.3-27.1,60.2-60.5,60.1c-33.2,0-60.3-27.2-60.3-60.4c0-33.3,27.3-60.5,60.7-60.4   C296.5,208,323.5,235.2,323.4,268.5z M311.4,268.5c0.1-26.8-21.5-48.6-48.1-48.6c-26.6-0.1-48.5,21.6-48.6,48.2   c-0.1,26.6,21.6,48.5,48.2,48.6C289.6,316.7,311.3,295.2,311.4,268.5z"></path>
	<path class="st0" d="M104.4,119.4c-22.1-0.1-39.9-18-39.9-40.1c0-22.2,18.2-40.3,40.3-40.2c22.1,0.1,40.1,18.4,39.9,40.6   C144.6,101.7,126.5,119.5,104.4,119.4z M104.7,107.4c15.6,0,28.1-12.7,28.1-28.2c0-15.4-12.8-28.1-28.2-28.1   c-15.5,0-28,12.7-28,28.3C76.5,95,89.1,107.4,104.7,107.4z"></path>
	<path class="st0" d="M255.6,264.3c7.9-7.7,15.2-15,22.6-22.2c4.1-4,9.1-5.2,14.5-3.3c5.4,1.9,8.5,5.9,9.3,11.6   c0.6,4.5-0.9,8.4-4,11.6c-10.6,10.8-21.2,21.5-31.9,32.2c-6.1,6-14.2,5.9-20.4-0.1c-5.8-5.7-11.5-11.4-17.2-17.2   c-5.8-5.9-5.9-14.5-0.4-20.1c5.5-5.6,14.2-5.6,20.1,0.2C250.7,259.3,253.1,261.9,255.6,264.3z M238.1,264.3   c-0.8,0.7-1.8,1.2-1.7,1.6c0.1,1,0.4,2.2,1.1,2.9c5.1,5.3,10.5,10.4,15.5,15.7c2.3,2.5,3.9,2.1,6.1-0.2c7.4-7.7,15-15.3,22.6-22.9   c2.5-2.6,5.2-5.1,7.5-7.8c0.5-0.6,0.2-1.9,0.2-2.9c-1,0-2.1-0.2-2.9,0.2c-0.8,0.3-1.3,1.1-1.9,1.8c-7.7,7.8-15.4,15.6-23.2,23.4   c-4.1,4.2-6.9,4.1-11.1-0.1c-3.2-3.2-6.3-6.4-9.5-9.5C240,265.7,239.1,265.1,238.1,264.3z"></path>
	<path class="st0" d="M97.3,82.3c6.8-6.2,12.9-11.7,19-17.2c3.6-3.3,6.9-3.5,9.5-0.7c2.7,2.8,2.2,6.3-1.6,9.7   c-7.2,6.6-14.4,13.1-21.6,19.6c-3.8,3.4-6.5,3.4-10.1-0.1c-2.9-2.9-5.9-5.8-8.7-8.7c-2.7-2.8-2.7-6.3-0.3-8.7   c2.4-2.5,5.9-2.5,8.7,0.1C94,78.1,95.6,80.3,97.3,82.3z"></path>
</g>
</svg>
