<svg xmlns="http://www.w3.org/2000/svg" width="64" height="58" viewBox="0 0 64 58" fill="none"><path d="M43.5 15.7306V19.4806H51.875V26.7167L37.0358 30.1777C35.8196 28.7548 34.014 27.8503 32 27.8503C28.9076 27.8503 26.3039 29.9803 25.5774 32.8502L12.125 35.9877V29.6262H20.5V25.8762H0V29.6262H8.375V40.713L25.7472 36.6612C25.909 37.1227 26.1203 37.561 26.375 37.9696V46.4847C22.4134 46.6786 19.25 49.9621 19.25 53.9708V57.7253H44.75V53.9708C44.75 49.9621 41.5866 46.6786 37.625 46.4847V37.9696C38.2579 36.9545 38.625 35.7572 38.625 34.4753C38.625 34.2025 38.6065 33.9338 38.5742 33.6695L55.625 29.6927V19.4805H64V15.7305H43.5V15.7306ZM32 31.6003C33.5853 31.6003 34.875 32.8901 34.875 34.4753C34.875 36.0606 33.5853 37.3503 32 37.3503C30.4147 37.3503 29.125 36.0606 29.125 34.4753C29.125 32.8901 30.4147 31.6003 32 31.6003ZM33.875 40.8285V46.4753H30.125V40.8285C30.7199 41.0043 31.3489 41.1003 32 41.1003C32.6511 41.1003 33.2801 41.0043 33.875 40.8285ZM41 53.971V53.9755H23V53.971C23 51.9057 24.6803 50.2255 26.7455 50.2255H37.2544C39.3198 50.2253 41 51.9056 41 53.971Z" fill="white"></path><path d="M17.6216 12.427L14.97 9.77539L8.42073 16.3245L5.52998 13.4338L2.87836 16.0854L8.42073 21.6279L17.6216 12.427Z" fill="white"></path><path d="M50.3883 12.302L53.75 8.94027L57.1118 12.302L59.7633 9.65039L56.4016 6.28864L59.7633 2.92702L57.1118 0.275391L53.75 3.63702L50.3883 0.275391L47.7368 2.92702L51.0984 6.28864L47.7368 9.65039L50.3883 12.302Z" fill="white"></path></svg>