<svg xmlns="http://www.w3.org/2000/svg" width="37" height="36" viewBox="0 0 37 36" fill="none"><circle cx="18.5" cy="18" r="17.5" stroke="black"></circle><path fill-rule="evenodd" clip-rule="evenodd" d="M17.2859 15.98H19.7619V17.2133C20.1186 16.504 21.0333 15.8667 22.4073 15.8667C25.0413 15.8667 25.6666 17.2787 25.6666 19.8693V24.6673H22.9999V20.4593C22.9999 18.984 22.6433 18.152 21.7353 18.152C20.4759 18.152 19.9526 19.0487 19.9526 20.4587V24.6673H17.2859V15.98ZM12.7133 24.554H15.3799V15.8667H12.7133V24.554ZM15.7619 13.034C15.762 13.2575 15.7177 13.4788 15.6315 13.685C15.5453 13.8913 15.419 14.0783 15.2599 14.2353C14.9375 14.5557 14.5011 14.7351 14.0466 14.734C13.5928 14.7337 13.1575 14.5548 12.8346 14.236C12.6761 14.0785 12.5502 13.8912 12.4641 13.6849C12.3781 13.4787 12.3336 13.2575 12.3333 13.034C12.3333 12.5827 12.5133 12.1507 12.8353 11.832C13.1578 11.5128 13.5934 11.3338 14.0473 11.334C14.5019 11.334 14.9379 11.5133 15.2599 11.832C15.5813 12.1507 15.7619 12.5827 15.7619 13.034Z" fill="black"></path></svg>