<svg xmlns="http://www.w3.org/2000/svg" width="37" height="36" viewBox="0 0 37 36" fill="none"><circle cx="18.5" cy="18" r="17.5" stroke="black"></circle><path d="M23.8675 12.8C23.1933 12.1191 22.3903 11.5791 21.5053 11.2117C20.6203 10.8444 19.671 10.6569 18.7128 10.6602C14.6978 10.6602 11.4255 13.9325 11.4255 17.9474C11.4255 19.2343 11.7638 20.4844 12.3962 21.5874L11.3667 25.367L15.2272 24.3523C16.2935 24.9332 17.4921 25.242 18.7128 25.242C22.7277 25.242 26 21.9698 26 17.9548C26 16.0061 25.2426 14.1751 23.8675 12.8ZM18.7128 24.0067C17.6245 24.0067 16.5582 23.7125 15.6243 23.161L15.4037 23.0286L13.1095 23.6316L13.7198 21.3962L13.5727 21.1682C12.9681 20.2027 12.647 19.0867 12.6462 17.9474C12.6462 14.609 15.367 11.8882 18.7054 11.8882C20.3232 11.8882 21.8453 12.5206 22.9851 13.6677C23.5495 14.2295 23.9967 14.8977 24.3009 15.6336C24.6051 16.3695 24.7602 17.1585 24.7573 17.9548C24.772 21.2932 22.0512 24.0067 18.7128 24.0067ZM22.0365 19.4769C21.8527 19.3887 20.9556 18.9475 20.7938 18.8813C20.6247 18.8225 20.507 18.7931 20.382 18.9696C20.257 19.1534 19.9114 19.5652 19.8084 19.6828C19.7055 19.8079 19.5952 19.8226 19.4113 19.727C19.2275 19.6387 18.6392 19.4402 17.948 18.8225C17.4039 18.3372 17.0435 17.7415 16.9332 17.5577C16.8303 17.3739 16.9185 17.2783 17.0141 17.1827C17.095 17.1018 17.198 16.9694 17.2862 16.8665C17.3744 16.7635 17.4112 16.6826 17.47 16.565C17.5289 16.44 17.4994 16.337 17.4553 16.2488C17.4112 16.1606 17.0435 15.2634 16.8965 14.8958C16.7494 14.5428 16.595 14.5869 16.4847 14.5796H16.1317C16.0067 14.5796 15.8155 14.6237 15.6464 14.8075C15.4846 14.9914 15.014 15.4326 15.014 16.3297C15.014 17.2268 15.6684 18.0945 15.7567 18.2122C15.8449 18.3372 17.0435 20.1755 18.8672 20.9623C19.301 21.1535 19.6393 21.2638 19.904 21.3447C20.3379 21.4844 20.735 21.4624 21.0511 21.4182C21.4041 21.3668 22.1321 20.977 22.2792 20.5505C22.4336 20.124 22.4336 19.7637 22.3821 19.6828C22.3306 19.602 22.2203 19.5652 22.0365 19.4769Z" fill="black"></path></svg>