<svg xmlns="http://www.w3.org/2000/svg" width="64" height="64" viewBox="0 0 64 64" fill="none"><path d="M44.7612 34.1367H19.3926V37.4864H44.7612V34.1367Z" stroke="white" stroke-width="2" stroke-linecap="round" stroke-linejoin="round"></path><path d="M37.9297 34.1365L47.9201 26.8415C48.469 26.4443 49.1192 26.2285 49.7948 26.2285H53.2488V42.9769C53.2488 44.2287 52.2608 45.2388 51.0362 45.2388H45.1163L42.9206 54.7353C42.7855 55.3138 42.2788 55.7195 41.7046 55.7195H40.7419C39.9396 55.7195 39.34 54.9598 39.5173 54.1569L41.865 43.5813C42.1437 42.3035 43.2584 41.4057 44.5336 41.4057H48.1565V30.4156L41.2401 34.1365" stroke="white" stroke-width="2" stroke-linecap="round" stroke-linejoin="round"></path><path d="M54.2454 19.6591C54.2454 21.662 52.6577 23.2851 50.6985 23.2851C48.7393 23.2851 47.1516 21.662 47.1516 19.6591C47.1516 17.6562 48.7393 16.0332 50.6985 16.0332C52.6577 16.0332 54.2454 17.6562 54.2454 19.6591Z" stroke="white" stroke-width="2" stroke-linecap="round" stroke-linejoin="round"></path><path d="M46.9492 47.6042H53.4772C54.7355 47.6042 55.7573 46.5596 55.7573 45.2819V33.5234" stroke="white" stroke-width="2" stroke-linecap="round" stroke-linejoin="round"></path><path d="M49.3138 47.6035L46.9492 55.7274" stroke="white" stroke-width="2" stroke-linecap="round" stroke-linejoin="round"></path><path d="M52.7083 47.6035L54.8702 55.7274" stroke="white" stroke-width="2" stroke-linecap="round" stroke-linejoin="round"></path><path d="M26.0645 34.1365L16.0741 26.8415C15.5252 26.4443 14.8749 26.2285 14.1993 26.2285H10.7454V42.9769C10.7454 44.2287 11.7334 45.2388 12.9579 45.2388H18.8778L21.0735 54.7353C21.2086 55.3138 21.7153 55.7195 22.2896 55.7195H23.2523C24.0546 55.7195 24.6542 54.9598 24.4768 54.1569L22.1291 43.5813C21.8505 42.3035 20.7357 41.4057 19.4605 41.4057H15.8377V30.4156L22.7541 34.1365" stroke="white" stroke-width="2" stroke-linecap="round" stroke-linejoin="round"></path><path d="M9.75684 19.6591C9.75684 21.662 11.3445 23.2851 13.3037 23.2851C15.2629 23.2851 16.8506 21.662 16.8506 19.6591C16.8506 17.6562 15.2629 16.0332 13.3037 16.0332C11.3445 16.0332 9.75684 17.6562 9.75684 19.6591Z" stroke="white" stroke-width="2" stroke-linecap="round" stroke-linejoin="round"></path><path d="M17.0538 47.6042H10.5258C9.26754 47.6042 8.25415 46.5596 8.25415 45.2819V33.5234" stroke="white" stroke-width="2" stroke-linecap="round" stroke-linejoin="round"></path><path d="M14.689 47.6035L17.0535 55.7274" stroke="white" stroke-width="2" stroke-linecap="round" stroke-linejoin="round"></path><path d="M11.2854 47.6035L9.12354 55.7274" stroke="white" stroke-width="2" stroke-linecap="round" stroke-linejoin="round"></path><path d="M27.8293 55.7283L40.5728 37.4863" stroke="white" stroke-width="2" stroke-linecap="round" stroke-linejoin="round"></path><path d="M36.9409 55.7283L24.1975 37.4863" stroke="white" stroke-width="2" stroke-linecap="round" stroke-linejoin="round"></path><path d="M23.6244 20.4609L23.6157 20.4696" stroke="white" stroke-width="2" stroke-linecap="round" stroke-linejoin="round"></path><path d="M45.0068 24.7695L38.8251 23.0084C37.1192 23.8112 35.1009 24.2774 32.9221 24.2774C30.3126 24.2774 27.9311 23.6127 26.0648 22.499H26.0563L21.1836 24.2774L23.6157 20.4702C22.5939 19.2529 22.0028 17.8198 22.0028 16.2745C22.0028 11.8543 26.8924 8.27148 32.9305 8.27148C38.9686 8.27148 43.8583 11.8456 43.8583 16.2745C43.8583 18.0356 43.0898 19.6587 41.7724 20.9796L45.0068 24.7695Z" stroke="white" stroke-width="2" stroke-linecap="round" stroke-linejoin="round"></path><path d="M41.7717 20.9793V20.9707" stroke="white" stroke-width="2" stroke-linecap="round" stroke-linejoin="round"></path><path d="M28.1926 12.0879H36.9416" stroke="white" stroke-width="2" stroke-linecap="round" stroke-linejoin="round"></path><path d="M25.186 15.2031H39.4833" stroke="white" stroke-width="2" stroke-linecap="round" stroke-linejoin="round"></path><path d="M28.1926 18.459H34.3405" stroke="white" stroke-width="2" stroke-linecap="round" stroke-linejoin="round"></path></svg>