<svg xmlns="http://www.w3.org/2000/svg" width="16" height="13" viewBox="0 0 16 13" fill="none"><path d="M8.306 0.106735C8.21728 0.0375648 8.108 0 7.9955 0C7.883 0 7.77372 0.0375648 7.685 0.106735L0.5 5.70924L1.1215 6.49524L2 5.81024V11.9997C2.00053 12.2648 2.10606 12.5188 2.29348 12.7063C2.4809 12.8937 2.73495 12.9992 3 12.9997H13C13.2651 12.9992 13.5191 12.8937 13.7065 12.7063C13.8939 12.5188 13.9995 12.2648 14 11.9997V5.81474L14.8785 6.49974L15.5 5.71374L8.306 0.106735ZM9 11.9997H7V7.99974H9V11.9997ZM10 11.9997V7.99974C9.99973 7.7346 9.89429 7.4804 9.70681 7.29292C9.51934 7.10544 9.26513 7 9 6.99974H7C6.73486 7 6.48066 7.10544 6.29319 7.29292C6.10571 7.4804 6.00026 7.7346 6 7.99974V11.9997H3V5.03074L8 1.13574L13 5.03574V11.9997H10Z" fill="#F4F4F4" fill-opacity="0.956863"></path></svg>