<?xml version="1.0" encoding="UTF-8"?>
<svg xmlns="http://www.w3.org/2000/svg" width="14" height="15" viewBox="0 0 14 15" fill="none">
  <path fill-rule="evenodd" clip-rule="evenodd" d="M6.23548 0.802915C6.38412 0.802682 6.54403 0.802754 6.71659 0.802831L7.001 0.802915C9.27942 0.802915 9.54947 0.811092 10.4492 0.851982C11.2812 0.890027 11.7328 1.02905 12.0336 1.14585C12.4318 1.30052 12.7157 1.48541 13.0142 1.78408C13.3129 2.08275 13.4978 2.3672 13.6528 2.76542C13.7696 3.06587 13.9088 3.51743 13.9467 4.34944C13.9876 5.24901 13.9964 5.51923 13.9964 7.79659C13.9964 10.0739 13.9876 10.3442 13.9467 11.2437C13.9086 12.0757 13.7696 12.5273 13.6528 12.8278C13.4981 13.226 13.3129 13.5095 13.0142 13.808C12.7155 14.1067 12.432 14.2916 12.0336 14.4463C11.7331 14.5636 11.2812 14.7023 10.4492 14.7403C9.54965 14.7812 9.27942 14.7901 7.001 14.7901C4.7224 14.7901 4.45235 14.7812 3.55279 14.7403C2.72078 14.7019 2.26922 14.5629 1.96824 14.4461C1.57001 14.2914 1.28556 14.1065 0.986892 13.8078C0.688223 13.5092 0.503332 13.2254 0.348308 12.827C0.231507 12.5266 0.0923053 12.075 0.0544383 11.243C0.013549 10.3435 0.00537109 10.0732 0.00537109 7.79445C0.00537109 5.51567 0.013549 5.24687 0.0544383 4.34731C0.0924831 3.5153 0.231507 3.06374 0.348308 2.76293C0.502976 2.36471 0.688223 2.08026 0.986892 1.78159C1.28556 1.48292 1.57001 1.29803 1.96824 1.14301C2.26904 1.02567 2.72078 0.887004 3.55279 0.848782C4.33999 0.813226 4.64506 0.802559 6.23548 0.800781V0.802915ZM11.5559 2.21976C10.9906 2.21976 10.5319 2.67789 10.5319 3.24341C10.5319 3.80875 10.9906 4.26742 11.5559 4.26742C12.1212 4.26742 12.5799 3.80875 12.5799 3.24341C12.5799 2.67807 12.1212 2.2194 11.5559 2.2194V2.21976ZM2.6188 7.79763C2.6188 5.37758 4.58086 3.41546 7.0009 3.41536C9.42101 3.41536 11.3826 5.37752 11.3826 7.79763C11.3826 10.2177 9.42119 12.179 7.00107 12.179C4.58096 12.179 2.6188 10.2177 2.6188 7.79763Z" fill="white"></path>
</svg>
