<?xml version="1.0" encoding="UTF-8"?>
<svg xmlns="http://www.w3.org/2000/svg" width="37" height="37" viewBox="0 0 37 37" fill="none">
  <circle cx="18.5" cy="18.7988" r="17.5" stroke="white"></circle>
  <g clip-path="url(#clip0_2280_2800)">
    <path d="M23.868 13.5998C23.1938 12.9189 22.3908 12.3789 21.5058 12.0115C20.6208 11.6442 19.6715 11.4567 18.7133 11.46C14.6983 11.46 11.426 14.7323 11.426 18.7472C11.426 20.0341 11.7643 21.2842 12.3967 22.3872L11.3672 26.1668L15.2277 25.1521C16.294 25.733 17.4926 26.0418 18.7133 26.0418C22.7282 26.0418 26.0005 22.7696 26.0005 18.7546C26.0005 16.8059 25.2431 14.9749 23.868 13.5998ZM18.7133 24.8065C17.6249 24.8065 16.5587 24.5123 15.6248 23.9608L15.4042 23.8285L13.1099 24.4314L13.7203 22.196L13.5732 21.968C12.9686 21.0025 12.6475 19.8865 12.6467 18.7472C12.6467 15.4088 15.3674 12.688 18.7059 12.688C20.3236 12.688 21.8458 13.3204 22.9856 14.4676C23.5499 15.0293 23.9972 15.6975 24.3014 16.4334C24.6056 17.1693 24.7607 17.9583 24.7578 18.7546C24.7725 22.093 22.0517 24.8065 18.7133 24.8065ZM22.037 20.2768C21.8532 20.1885 20.956 19.7473 20.7943 19.6811C20.6251 19.6223 20.5075 19.5929 20.3825 19.7694C20.2575 19.9532 19.9119 20.365 19.8089 20.4826C19.706 20.6077 19.5957 20.6224 19.4118 20.5268C19.228 20.4385 18.6397 20.24 17.9485 19.6223C17.4043 19.137 17.044 18.5413 16.9337 18.3575C16.8308 18.1737 16.919 18.0781 17.0146 17.9825C17.0955 17.9016 17.1984 17.7692 17.2867 17.6663C17.3749 17.5633 17.4117 17.4825 17.4705 17.3648C17.5294 17.2398 17.4999 17.1368 17.4558 17.0486C17.4117 16.9604 17.044 16.0632 16.897 15.6956C16.7499 15.3426 16.5955 15.3867 16.4852 15.3794H16.1322C16.0072 15.3794 15.816 15.4235 15.6469 15.6073C15.4851 15.7912 15.0145 16.2324 15.0145 17.1295C15.0145 18.0266 15.6689 18.8943 15.7572 19.012C15.8454 19.137 17.044 20.9753 18.8677 21.7621C19.3015 21.9533 19.6398 22.0636 19.9045 22.1445C20.3384 22.2842 20.7354 22.2622 21.0516 22.2181C21.4046 22.1666 22.1326 21.7768 22.2797 21.3504C22.4341 20.9239 22.4341 20.5635 22.3826 20.4826C22.3311 20.4018 22.2208 20.365 22.037 20.2768Z" fill="white"></path>
  </g>
  <defs>
    <clipPath id="clip0_2280_2800">
      <rect width="16" height="16" fill="white" transform="translate(10 10.7988)"></rect>
    </clipPath>
  </defs>
</svg>
