<?xml version="1.0" encoding="UTF-8"?>
<svg xmlns="http://www.w3.org/2000/svg" width="32" height="33" viewBox="0 0 32 33" fill="none">
  <path fill-rule="evenodd" clip-rule="evenodd" d="M16 0.798828C7.16344 0.798828 0 7.96227 0 16.7988C0 25.6354 7.16344 32.7988 16 32.7988C24.8366 32.7988 32 25.6354 32 16.7988C32 7.96227 24.8366 0.798828 16 0.798828ZM22.6679 11.2992C23.4022 11.5007 23.9805 12.0944 24.1768 12.8484C24.5335 14.215 24.5335 17.0663 24.5335 17.0663C24.5335 17.0663 24.5335 19.9175 24.1768 21.2841C23.9805 22.0381 23.4022 22.6319 22.6679 22.8335C21.3371 23.1996 16.0001 23.1996 16.0001 23.1996C16.0001 23.1996 10.6632 23.1996 9.3323 22.8335C8.59795 22.6319 8.01962 22.0381 7.82335 21.2841C7.4668 19.9175 7.4668 17.0663 7.4668 17.0663C7.4668 17.0663 7.4668 14.215 7.82335 12.8484C8.01962 12.0944 8.59795 11.5007 9.3323 11.2992C10.6632 10.9329 16.0001 10.9329 16.0001 10.9329C16.0001 10.9329 21.3371 10.9329 22.6679 11.2992Z" fill="white"></path>
</svg>
