<svg xmlns="http://www.w3.org/2000/svg" width="67" height="67" viewBox="0 0 67 67" fill="none"><path d="M16.1664 26.7402V31.3678C13.1076 29.956 13.5782 35.4462 14.1272 39.9168C14.5664 43.4933 17.1337 44.126 18.3625 43.9952C18.488 46.5678 20.82 51.4462 21.9703 53.5639L21.1076 60.7796L15.4997 62.6227" stroke="white" stroke-width="2"></path><path d="M49.9703 26.7402V31.3678C53.0291 29.956 52.5585 35.4462 52.0095 39.9168C51.5703 43.4933 49.003 44.126 47.7742 43.9952C47.6487 46.5678 45.3167 51.4462 44.1664 53.5639L45.0291 60.7796L50.637 62.6227" stroke="white" stroke-width="2"></path><path d="M12.2451 26.8184H16.2451H53.7353" stroke="white" stroke-width="2"></path><path d="M14.6774 26.7403C14.6774 26.7403 14.3302 5.72547 30.3688 5.72547V4.46582H35.8532V6.31824" stroke="white" stroke-width="2"></path><path d="M51.3822 26.5834C51.3822 26.5834 51.7292 5.7207 35.6965 5.7207" stroke="white" stroke-width="2"></path><circle cx="22.9904" cy="30.8771" r="0.784314" fill="white" stroke="white" stroke-width="0.5"></circle><circle cx="33.5021" cy="29.3087" r="0.784314" fill="white" stroke="white" stroke-width="0.5"></circle><circle cx="33.5021" cy="35.5841" r="0.784314" fill="white" stroke="white" stroke-width="0.5"></circle><circle cx="33.5021" cy="45.8771" r="0.784314" fill="white" stroke="white" stroke-width="0.5"></circle><circle cx="33.5021" cy="55.9171" r="0.784314" fill="white" stroke="white" stroke-width="0.5"></circle><circle cx="26.5995" cy="51.3673" r="0.784314" fill="white" stroke="white" stroke-width="0.5"></circle><circle cx="22.6779" cy="43.5245" r="0.784314" fill="white" stroke="white" stroke-width="0.5"></circle><circle cx="26.129" cy="38.1906" r="0.784314" fill="white" stroke="white" stroke-width="0.5"></circle><circle cx="0.784314" cy="0.784314" r="0.784314" transform="matrix(-1 0 0 1 44.9521 30.0928)" fill="white" stroke="white" stroke-width="0.5"></circle><circle cx="0.784314" cy="0.784314" r="0.784314" transform="matrix(-1 0 0 1 41.3447 50.583)" fill="white" stroke="white" stroke-width="0.5"></circle><circle cx="0.784314" cy="0.784314" r="0.784314" transform="matrix(-1 0 0 1 45.2666 42.7402)" fill="white" stroke="white" stroke-width="0.5"></circle><circle cx="0.784314" cy="0.784314" r="0.784314" transform="matrix(-1 0 0 1 41.8154 37.4062)" fill="white" stroke="white" stroke-width="0.5"></circle><path d="M11.8529 1.79883H1.5V12.1518" stroke="white" stroke-width="2"></path><path d="M11.8529 65.7988H1.5V55.4459" stroke="white" stroke-width="2"></path><path d="M55.1471 1.79883H65.5V12.1518" stroke="white" stroke-width="2"></path><path d="M55.1471 65.7988H65.5V55.4459" stroke="white" stroke-width="2"></path></svg>