<svg xmlns="http://www.w3.org/2000/svg" width="32" height="33" viewBox="0 0 32 33" fill="none"><path fill-rule="evenodd" clip-rule="evenodd" d="M16 0.798828C7.16344 0.798828 0 7.96227 0 16.7988C0 25.6354 7.16344 32.7988 16 32.7988C24.8366 32.7988 32 25.6354 32 16.7988C32 7.96227 24.8366 0.798828 16 0.798828ZM12.4823 8.31718C13.3926 8.27576 13.6834 8.26562 16.0009 8.26562H15.9983C18.3165 8.26562 18.6063 8.27576 19.5165 8.31718C20.425 8.35878 21.0454 8.50261 21.5895 8.71363C22.1512 8.93141 22.6259 9.22297 23.1006 9.69764C23.5753 10.172 23.8668 10.648 24.0855 11.2093C24.2953 11.7519 24.4393 12.372 24.4819 13.2804C24.5228 14.1907 24.5335 14.4815 24.5335 16.799C24.5335 19.1166 24.5228 19.4067 24.4819 20.3169C24.4393 21.225 24.2953 21.8453 24.0855 22.3881C23.8668 22.9492 23.5753 23.4252 23.1006 23.8996C22.6264 24.3742 22.1511 24.6665 21.59 24.8845C21.047 25.0955 20.4262 25.2393 19.5178 25.2809C18.6076 25.3223 18.3176 25.3325 15.9999 25.3325C13.6825 25.3325 13.3919 25.3223 12.4816 25.2809C11.5733 25.2393 10.9531 25.0955 10.4101 24.8845C9.84924 24.6665 9.37315 24.3742 8.89901 23.8996C8.42452 23.4252 8.13296 22.9492 7.91482 22.3879C7.70398 21.8453 7.56015 21.2252 7.51837 20.3168C7.47713 19.4065 7.46682 19.1166 7.46682 16.799C7.46682 14.4815 7.47748 14.1905 7.5182 13.2803C7.55908 12.3722 7.70309 11.7519 7.91464 11.2091C8.13331 10.648 8.42487 10.172 8.89954 9.69764C9.37386 9.22315 9.84995 8.93159 10.4112 8.71363C10.9538 8.50261 11.5739 8.35878 12.4823 8.31718Z" fill="white"></path><path fill-rule="evenodd" clip-rule="evenodd" d="M15.2355 9.80291C15.3841 9.80268 15.544 9.80275 15.7166 9.80283L16.001 9.80291C18.2794 9.80291 18.5495 9.81109 19.4492 9.85198C20.2812 9.89003 20.7328 10.0291 21.0336 10.1459C21.4318 10.3005 21.7157 10.4854 22.0142 10.7841C22.3129 11.0828 22.4978 11.3672 22.6528 11.7654C22.7696 12.0659 22.9088 12.5174 22.9467 13.3494C22.9876 14.249 22.9964 14.5192 22.9964 16.7966C22.9964 19.0739 22.9876 19.3442 22.9467 20.2437C22.9086 21.0757 22.7696 21.5273 22.6528 21.8278C22.4981 22.226 22.3129 22.5095 22.0142 22.808C21.7155 23.1067 21.432 23.2916 21.0336 23.4463C20.7331 23.5636 20.2812 23.7023 19.4492 23.7403C18.5496 23.7812 18.2794 23.7901 16.001 23.7901C13.7224 23.7901 13.4524 23.7812 12.5528 23.7403C11.7208 23.7019 11.2692 23.5629 10.9682 23.4461C10.57 23.2914 10.2856 23.1065 9.98689 22.8078C9.68822 22.5092 9.50333 22.2254 9.34831 21.827C9.23151 21.5266 9.09231 21.075 9.05444 20.243C9.01355 19.3435 9.00537 19.0732 9.00537 16.7945C9.00537 14.5157 9.01355 14.2469 9.05444 13.3473C9.09248 12.5153 9.23151 12.0637 9.34831 11.7629C9.50298 11.3647 9.68822 11.0803 9.98689 10.7816C10.2856 10.4829 10.57 10.298 10.9682 10.143C11.269 10.0257 11.7208 9.887 12.5528 9.84878C13.34 9.81323 13.6451 9.80256 15.2355 9.80078V9.80291ZM20.5559 11.2198C19.9906 11.2198 19.5319 11.6779 19.5319 12.2434C19.5319 12.8088 19.9906 13.2674 20.5559 13.2674C21.1212 13.2674 21.5799 12.8088 21.5799 12.2434C21.5799 11.6781 21.1212 11.2194 20.5559 11.2194V11.2198ZM11.6188 16.7976C11.6188 14.3776 13.5809 12.4155 16.0009 12.4154C18.421 12.4154 20.3826 14.3775 20.3826 16.7976C20.3826 19.2177 18.4212 21.179 16.0011 21.179C13.581 21.179 11.6188 19.2177 11.6188 16.7976Z" fill="white"></path><path fill-rule="evenodd" clip-rule="evenodd" d="M16.0007 13.9541C17.5716 13.9541 18.8452 15.2275 18.8452 16.7986C18.8452 18.3694 17.5716 19.643 16.0007 19.643C14.4297 19.643 13.1562 18.3694 13.1562 16.7986C13.1562 15.2275 14.4297 13.9541 16.0007 13.9541V13.9541Z" fill="white"></path></svg>