<svg xmlns="http://www.w3.org/2000/svg" width="48" height="48" viewBox="0 0 48 48" fill="none"><path d="M35.4841 4.71312C32.3934 2.77132 28.7971 1.56027 24.9375 1.32227L23.5312 23.7786L42.6157 11.8559C40.8092 8.97047 38.3665 6.52402 35.4841 4.71312Z" stroke="white" stroke-width="2"></path><path d="M44.4427 15.4583C45.4677 18.0321 46.0313 20.8397 46.0313 23.7789C46.0313 36.205 35.9579 46.2784 23.5318 46.2784C11.1056 46.2784 1.03223 36.205 1.03223 23.7789C1.03223 12.3697 9.52418 2.94401 20.5322 1.47754" stroke="white" stroke-width="2" stroke-linecap="round"></path><path d="M20.9203 10.5693C14.7367 11.7852 10.0723 17.2357 10.0723 23.7757C10.0723 31.2092 16.0983 37.2352 23.5318 37.2352C30.9653 37.2352 36.9914 31.2092 36.9914 23.7757C36.9914 22.3763 36.7778 21.0268 36.3815 19.7579" stroke="white" stroke-width="2" stroke-linecap="round"></path><circle cx="23.5322" cy="23.7785" r="2.61155" fill="white"></circle><circle cx="32.3701" cy="9.91501" r="1.40622" fill="white"></circle></svg>