<?xml version="1.0" encoding="UTF-8"?>
<svg xmlns="http://www.w3.org/2000/svg" width="37" height="37" viewBox="0 0 37 37" fill="none">
  <circle cx="18.5" cy="18.7988" r="17.5" stroke="white"></circle>
  <path fill-rule="evenodd" clip-rule="evenodd" d="M17.2857 16.7778H19.7617V18.0112C20.1183 17.3018 21.033 16.6645 22.407 16.6645C25.041 16.6645 25.6663 18.0765 25.6663 20.6672V25.4652H22.9997V21.2572C22.9997 19.7818 22.643 18.9498 21.735 18.9498C20.4757 18.9498 19.9523 19.8465 19.9523 21.2565V25.4652H17.2857V16.7778ZM12.713 25.3518H15.3797V16.6645H12.713V25.3518ZM15.7617 13.8318C15.7618 14.0554 15.7174 14.2767 15.6313 14.4829C15.5451 14.6891 15.4188 14.8762 15.2597 15.0332C14.9373 15.3536 14.5009 15.5329 14.0463 15.5318C13.5926 15.5315 13.1572 15.3526 12.8343 15.0338C12.6758 14.8763 12.5499 14.6891 12.4639 14.4828C12.3779 14.2765 12.3334 14.0553 12.333 13.8318C12.333 13.3805 12.513 12.9485 12.835 12.6298C13.1576 12.3106 13.5932 12.1316 14.047 12.1318C14.5017 12.1318 14.9377 12.3112 15.2597 12.6298C15.581 12.9485 15.7617 13.3805 15.7617 13.8318Z" fill="white"></path>
</svg>
