<?xml version="1.0" encoding="UTF-8"?>
<svg xmlns="http://www.w3.org/2000/svg" width="32" height="33" viewBox="0 0 32 33" fill="none">
  <path fill-rule="evenodd" clip-rule="evenodd" d="M16 0.798828C7.16344 0.798828 0 7.96227 0 16.7988C0 25.6354 7.16344 32.7988 16 32.7988C24.8366 32.7988 32 25.6354 32 16.7988C32 7.96227 24.8366 0.798828 16 0.798828ZM15.5544 14.3571L15.5208 13.8034C15.4201 12.3685 16.3042 11.0579 17.7032 10.5494C18.218 10.3686 19.091 10.346 19.6617 10.5042C19.8856 10.572 20.3108 10.798 20.613 11.0014L21.1614 11.3742L21.7658 11.1821C22.1015 11.0805 22.5492 10.911 22.7506 10.798C22.9409 10.6963 23.1088 10.6398 23.1088 10.6737C23.1088 10.8658 22.6947 11.5211 22.3477 11.8827C21.8777 12.3911 22.012 12.4363 22.9633 12.0973C23.534 11.9053 23.5452 11.9053 23.4333 12.1199C23.3662 12.2329 23.0192 12.6284 22.6499 12.9899C22.0232 13.6114 21.9896 13.6792 21.9896 14.1989C21.9896 15.0011 21.6091 16.6733 21.2286 17.5885C20.5235 19.3059 19.0126 21.0798 17.5017 21.9724C15.3753 23.2266 12.5438 23.5429 10.16 22.8085C9.36539 22.5599 8.00001 21.9272 8.00001 21.8142C8.00001 21.7803 8.4141 21.7351 8.91773 21.7238C9.96974 21.7012 11.0218 21.4075 11.9171 20.8877L12.5214 20.5262L11.8276 20.2889C10.8427 19.9499 9.95855 19.1703 9.73472 18.4359C9.66757 18.1986 9.68995 18.1873 10.3167 18.1873L10.9658 18.176L10.4174 17.9162C9.76829 17.5885 9.17514 17.0349 8.88415 16.4699C8.67151 16.0632 8.40291 15.035 8.48125 14.9559C8.50364 14.922 8.73866 14.9898 9.00726 15.0802C9.77949 15.3627 9.88021 15.2949 9.43254 14.8203C8.59317 13.9616 8.33576 12.6849 8.73866 11.4759L8.92892 10.9336L9.66757 11.668C11.1784 13.1481 12.9579 14.0294 14.9948 14.2893L15.5544 14.3571Z" fill="white"></path>
</svg>
