<?xml version="1.0" encoding="UTF-8"?>
<svg xmlns="http://www.w3.org/2000/svg" width="15" height="13" viewBox="0 0 15 13" fill="none">
  <path fill-rule="evenodd" clip-rule="evenodd" d="M14 0.798828H8.5L8.15 0.948828L7.5 1.58883L6.85 0.948828L6.5 0.798828H1L0.5 1.29883V11.2988L1 11.7988H6.29L7.15 12.6488H7.85L8.71 11.7988H14L14.5 11.2988V1.29883L14 0.798828ZM7 11.1188L6.82 10.9488L6.5 10.7988H1.5V1.79883H6.29L7.03 2.53883L7 11.1188ZM13.5 10.7988H8.5L8.15 10.9488L8.01 11.0788V2.49883L8.71 1.79883H13.5V10.7988ZM5.5 3.79883H2.5V4.79883H5.5V3.79883ZM5.5 7.79883H2.5V8.79883H5.5V7.79883ZM2.5 5.79883H5.5V6.79883H2.5V5.79883ZM12.5 3.79883H9.5V4.79883H12.5V3.79883ZM9.5 5.79883H12.5V6.79883H9.5V5.79883ZM9.5 7.79883H12.5V8.79883H9.5V7.79883Z" fill="white"></path>
</svg>
