<svg xmlns="http://www.w3.org/2000/svg" width="65" height="65" viewBox="0 0 65 65" fill="none"><rect x="8.62878" y="49.9492" width="46.2789" height="3.38626" stroke="white" stroke-width="1.5"></rect><path d="M26.6887 53.3359H36.8475V56.7222H26.6887V53.3359Z" stroke="white" stroke-width="1.5"></path><path d="M21.6093 56.7217H41.9268V61.2367H21.6093V56.7217Z" stroke="white" stroke-width="1.5"></path><path d="M10.3218 61.2363C12.4196 61.2363 39.791 61.2363 53.2145 61.2363" stroke="white" stroke-width="1.5"></path><path d="M18.023 35.3682C15.7848 35.3682 13.9639 37.1891 13.9639 39.4273C13.9639 41.6654 15.7848 43.4863 18.023 43.4863C20.2611 43.4863 22.082 41.6654 22.082 39.4273C22.082 37.1891 20.2611 35.3682 18.023 35.3682ZM18.023 41.5736C16.8401 41.5736 15.8767 40.6101 15.8767 39.4273C15.8767 38.2444 16.8388 37.281 18.023 37.281C19.2071 37.281 20.1693 38.2431 20.1693 39.4273C20.1693 40.6114 19.2071 41.5736 18.023 41.5736Z" fill="white"></path><path d="M55.543 12.9948H54.9126L52.2814 9.92086C52.0989 9.70904 51.8335 9.58654 51.5541 9.58654H48.572L46.5124 7.81794C46.3389 7.66865 46.1181 7.58698 45.8897 7.58698H42.1101L39.364 5.05276C39.1867 4.88943 38.9557 4.79883 38.7145 4.79883H32.2322C32.0115 4.79883 31.7971 4.87539 31.6261 5.01576L25.3263 10.1863C24.9792 10.0421 24.6053 9.96424 24.2264 9.96424H20.79C20.2617 9.96424 19.8329 10.393 19.8329 10.9213C19.8329 11.4496 20.2617 11.8783 20.79 11.8783H24.2264C24.4433 11.8783 24.6564 11.9536 24.8261 12.0889L28.0711 14.6971C28.2408 14.8336 28.4526 14.9089 28.6708 14.9089H54.5859V25.9339L32.4466 31.9632L24.1115 24.6783V14.7481C24.1115 14.2198 23.6828 13.7911 23.1545 13.7911H9.41279V11.8783H12.1818C12.7101 11.8783 13.1388 11.4496 13.1388 10.9213C13.1388 10.393 12.7101 9.96424 12.1818 9.96424H8.45703C7.92875 9.96424 7.5 10.393 7.5 10.9213V14.7468C7.5 15.2751 7.92747 15.7039 8.45703 15.7039H11.8921L9.12568 24.1551H8.45831C7.93003 24.1551 7.50128 24.5839 7.50128 25.1121V34.195C7.50128 34.7233 7.92875 35.152 8.45831 35.152H8.99552C8.81815 35.5272 8.66247 35.9113 8.53359 36.3056H8.45958C7.9313 36.3056 7.50255 36.7343 7.50255 37.2626V41.5948C7.50255 42.123 7.93003 42.5518 8.45958 42.5518H8.53359C8.68927 43.0265 8.88068 43.4871 9.10526 43.9325L9.05294 43.9848C8.87302 44.1647 8.77221 44.4072 8.77221 44.6611C8.77221 44.915 8.87302 45.1575 9.05294 45.3374L12.1154 48.3999C12.4893 48.7738 13.0954 48.7738 13.468 48.3999L13.5204 48.3476C13.9657 48.5734 14.4264 48.7636 14.901 48.9192V48.9933C14.901 49.5215 15.3298 49.9503 15.8581 49.9503H20.1902C20.7185 49.9503 21.1473 49.5215 21.1473 48.9933V48.9192C21.622 48.7636 22.0826 48.5722 22.5279 48.3476L22.5803 48.3999C22.9541 48.7738 23.559 48.7738 23.9329 48.3999L26.9954 45.3374C27.3692 44.9635 27.3692 44.3574 26.9954 43.9848L26.9418 43.9325C27.1676 43.4871 27.359 43.0252 27.5147 42.5518H27.5887C28.117 42.5518 28.5458 42.123 28.5458 41.5948V40.3851H35.4568V41.5948C35.4568 42.123 35.8855 42.5518 36.4138 42.5518H36.4878C36.6435 43.0252 36.8349 43.4871 37.0595 43.9325L37.0059 43.9848C36.632 44.3587 36.632 44.9635 37.0059 45.3374L40.0684 48.3999C40.4423 48.7738 41.0471 48.7738 41.421 48.3999L41.4733 48.3476C41.9187 48.5734 42.3793 48.7636 42.854 48.9192V48.9933C42.854 49.5215 43.2828 49.9503 43.811 49.9503H48.1432C48.6715 49.9503 49.1002 49.5215 49.1002 48.9933V48.9192C49.5736 48.7636 50.0356 48.5722 50.4809 48.3476L50.5332 48.3999C50.9071 48.7738 51.512 48.7738 51.8858 48.3999L54.9483 45.3374C55.1283 45.1575 55.2291 44.915 55.2291 44.6611C55.2291 44.4072 55.1283 44.1647 54.9483 43.9848L54.896 43.9325C55.1219 43.4871 55.3133 43.0252 55.4677 42.5518H55.5417C56.07 42.5518 56.4987 42.123 56.4987 41.5948V37.2626C56.4987 36.7343 56.07 36.3056 55.5417 36.3056H55.4677C55.312 35.8322 55.1206 35.3702 54.896 34.9249L54.9483 34.8726C55.3222 34.4987 55.3222 33.8926 54.9483 33.52L51.8858 30.4575C51.7059 30.2775 51.4635 30.1767 51.2095 30.1767C50.9556 30.1767 50.7132 30.2775 50.5332 30.4575L50.4809 30.5098C50.0356 30.2839 49.5736 30.0925 49.1002 29.9368V29.8628C49.1002 29.7097 49.0632 29.5668 48.9994 29.4392L55.7943 27.5889C56.2116 27.4754 56.5 27.0977 56.5 26.6664V13.9544C56.5 13.4261 56.0712 12.9974 55.543 12.9974V12.9948ZM13.9045 15.7039H22.1987V24.1551H11.138L13.9045 15.7039ZM26.6317 40.6505C26.2616 40.7143 25.9567 40.9899 25.8648 41.3651C25.6708 42.1537 25.3582 42.9078 24.9371 43.6033C24.7368 43.9325 24.7572 44.3446 24.9741 44.6509L23.2451 46.3799C22.9388 46.163 22.5267 46.1426 22.1974 46.3429C21.502 46.764 20.7491 47.0766 19.9593 47.2706C19.5854 47.3625 19.3085 47.6674 19.2447 48.0375H16.7985C16.7347 47.6674 16.4591 47.3625 16.0839 47.2706C15.2953 47.0766 14.5412 46.7653 13.8458 46.3429C13.5153 46.1439 13.1044 46.163 12.7981 46.3799L11.0691 44.6509C11.286 44.3446 11.3064 43.9337 11.1061 43.6033C10.685 42.9078 10.3724 42.1537 10.1784 41.3651C10.0865 40.9912 9.78156 40.7143 9.41151 40.6505V38.2043C9.78156 38.1405 10.0865 37.8636 10.1784 37.4897C10.3724 36.6999 10.685 35.947 11.1061 35.2516C11.3052 34.9223 11.286 34.5102 11.0691 34.2039L12.7981 32.4749C13.1044 32.6918 13.5153 32.711 13.8458 32.5119C14.5412 32.0908 15.2953 31.7795 16.0839 31.5842C16.4578 31.4923 16.7347 31.1874 16.7985 30.8173H19.2447C19.3085 31.1874 19.5854 31.4923 19.9593 31.5842C20.7491 31.7782 21.502 32.0908 22.1974 32.5119C22.5267 32.711 22.9388 32.6918 23.2451 32.4749L24.9741 34.2039C24.7572 34.5102 24.738 34.9223 24.9371 35.2516C25.3582 35.947 25.6708 36.6999 25.8648 37.4897C25.9567 37.8636 26.2616 38.1405 26.6317 38.2043V40.6505ZM50.1542 32.5119C50.4835 32.711 50.8956 32.6918 51.2019 32.4749L52.9309 34.2039C52.714 34.5102 52.6936 34.9223 52.8939 35.2516C53.315 35.947 53.6276 36.6999 53.8216 37.4897C53.9135 37.8636 54.2184 38.1405 54.5885 38.2043V40.6505C54.2184 40.7143 53.9135 40.9899 53.8216 41.3651C53.6276 42.1537 53.3163 42.9078 52.8939 43.6033C52.6948 43.9325 52.714 44.3446 52.9309 44.6509L51.2019 46.3799C50.8956 46.163 50.4847 46.1426 50.1542 46.3429C49.4588 46.764 48.7047 47.0766 47.9161 47.2706C47.5422 47.3625 47.2653 47.6674 47.2015 48.0375H44.7553C44.6915 47.6674 44.4146 47.3625 44.0407 47.2706C43.2509 47.0766 42.498 46.7653 41.8026 46.3429C41.4733 46.1439 41.0612 46.163 40.7549 46.3799L39.0259 44.6509C39.2428 44.3446 39.262 43.9337 39.0629 43.6033C38.6418 42.9078 38.3292 42.1537 38.1352 41.3651C38.0433 40.9912 37.7384 40.7143 37.3683 40.6505V38.2043C37.7384 38.1405 38.0433 37.8636 38.1352 37.4897C38.3292 36.6999 38.6418 35.947 39.0629 35.2516C39.2632 34.9223 39.2428 34.5102 39.0259 34.2039L40.7549 32.4749C41.0612 32.6918 41.4733 32.711 41.8026 32.5119C42.498 32.0908 43.2509 31.7795 44.0407 31.5842C44.4146 31.4923 44.6915 31.1874 44.7553 30.8173H47.2015C47.2653 31.1861 47.5409 31.4911 47.9161 31.5842C48.7047 31.7782 49.4588 32.0908 50.1542 32.5119ZM37.0072 33.5187C36.6333 33.8926 36.6333 34.4974 37.0072 34.8713L37.0608 34.9236C36.8349 35.369 36.6435 35.8309 36.4891 36.3043H36.4151C35.8868 36.3043 35.4581 36.733 35.4581 37.2613V38.471H28.547V37.2613C28.547 36.733 28.1183 36.3043 27.59 36.3043H27.516C27.3603 35.8309 27.1689 35.369 26.943 34.9236L26.9966 34.8713C27.3705 34.4974 27.3705 33.8926 26.9966 33.5187L23.9341 30.4562C23.7542 30.2763 23.5118 30.1755 23.2578 30.1755C23.0039 30.1755 22.7615 30.2763 22.5815 30.4562L22.5292 30.5085C22.0839 30.2827 21.622 30.0912 21.1485 29.9356V29.8616C21.1485 29.3333 20.7198 28.9045 20.1915 28.9045H15.8593C15.3311 28.9045 14.9023 29.3333 14.9023 29.8616V29.9356C14.4276 30.0912 13.967 30.2827 13.5216 30.5085L13.4693 30.4562C13.2894 30.2763 13.047 30.1755 12.793 30.1755C12.5391 30.1755 12.2966 30.2763 12.1167 30.4562L9.41661 33.1563V26.0704H22.7997L31.5789 33.742C31.8201 33.9526 32.1506 34.0291 32.4594 33.9449L38.1276 32.4009L37.0085 33.5187H37.0072ZM26.943 11.3347L32.5755 6.71161H38.3419L41.088 9.24583C41.2653 9.40917 41.4963 9.49849 41.7375 9.49849H45.5362L47.5971 11.2671C47.7706 11.4164 47.9914 11.498 48.2198 11.498H51.1151L52.3963 12.9936H29.009L26.9443 11.3347H26.943Z" fill="white"></path><path d="M30.5892 24.4281V17.7773C30.5892 17.2491 30.1605 16.8203 29.6322 16.8203C29.1039 16.8203 28.6752 17.2491 28.6752 17.7773V24.4281C28.6752 24.9564 29.1026 25.3851 29.6322 25.3851C30.1618 25.3851 30.5892 24.9564 30.5892 24.4281Z" fill="white"></path><path d="M37.0663 24.4281V17.7773C37.0663 17.2491 36.6375 16.8203 36.1093 16.8203C35.581 16.8203 35.1522 17.2491 35.1522 17.7773V24.4281C35.1522 24.9564 35.5797 25.3851 36.1093 25.3851C36.6388 25.3851 37.0663 24.9564 37.0663 24.4281Z" fill="white"></path><path d="M43.5435 24.4281V17.7773C43.5435 17.2491 43.1147 16.8203 42.5864 16.8203C42.0581 16.8203 41.6294 17.2491 41.6294 17.7773V24.4281C41.6294 24.9564 42.0581 25.3851 42.5864 25.3851C43.1147 25.3851 43.5435 24.9564 43.5435 24.4281Z" fill="white"></path><path d="M50.0228 24.4281V17.7773C50.0228 17.2491 49.5941 16.8203 49.0658 16.8203C48.5375 16.8203 48.1088 17.2491 48.1088 17.7773V24.4281C48.1088 24.9564 48.5375 25.3851 49.0658 25.3851C49.5941 25.3851 50.0228 24.9564 50.0228 24.4281Z" fill="white"></path><path d="M41.9182 39.4273C41.9182 41.6654 43.7391 43.4863 45.9773 43.4863C48.2155 43.4863 50.0364 41.6654 50.0364 39.4273C50.0364 37.1891 48.2155 35.3682 45.9773 35.3682C43.7391 35.3682 41.9182 37.1891 41.9182 39.4273ZM48.1236 39.4273C48.1236 40.6101 47.1615 41.5736 45.9773 41.5736C44.7931 41.5736 43.831 40.6101 43.831 39.4273C43.831 38.2444 44.7931 37.281 45.9773 37.281C47.1615 37.281 48.1236 38.2431 48.1236 39.4273Z" fill="white"></path><path d="M17.4432 10.9209C17.4432 11.4492 17.0145 11.8779 16.4862 11.8779C15.9579 11.8779 15.5292 11.4492 15.5292 10.9209C15.5292 10.3926 15.9566 9.96387 16.4862 9.96387C17.0158 9.96387 17.4432 10.3926 17.4432 10.9209Z" fill="white"></path></svg>