<?xml version="1.0" encoding="UTF-8"?>
<svg xmlns="http://www.w3.org/2000/svg" width="74" height="28" viewBox="0 0 74 28" fill="none">
  <g clip-path="url(#clip0_2210_1791)">
    <path d="M58.8318 23.1511C57.6828 23.4305 56.4073 23.7573 54.3464 23.7573C50.3142 23.7573 45.6602 21.7173 45.6602 15.9978C45.6602 10.7317 49.3444 8.11182 54.3253 8.11182C55.8644 8.11182 57.356 8.45973 58.8107 8.89198L58.484 12.1655C57.1821 11.4486 55.9276 11.1007 54.5414 11.1007C51.6794 11.1007 49.8188 13.1829 49.8188 15.9978C49.8188 18.9656 51.9218 20.7632 54.8682 20.7632C56.1859 20.7632 57.5299 20.4153 58.6368 19.983L58.8318 23.1458V23.1511Z" fill="white"></path>
    <path d="M0.500724 19.7722C1.53907 20.3363 2.9938 20.7685 4.65937 20.7685C5.94017 20.7685 7.15245 20.5102 7.15245 19.2978C7.15245 16.4776 0 18.2594 0 12.756C0 9.11348 3.5525 8.11719 6.58847 8.11719C8.04321 8.11719 9.47159 8.33332 10.4888 8.68123L10.2306 11.8019C9.19224 11.3275 8.02212 11.1061 6.87309 11.1061C5.85583 11.1061 4.16391 11.1904 4.16391 12.5135C4.16391 14.9647 11.3164 13.3148 11.3164 18.776C11.3164 22.6979 8.02212 23.7627 4.66464 23.7627C3.25734 23.7627 1.50217 23.5466 0.158123 23.109L0.505995 19.7722H0.500724Z" fill="white"></path>
    <path d="M17.9255 8.36914H13.8933V23.4928H17.9255V8.36914Z" fill="white"></path>
    <path d="M23.5343 11.3633H19.8079V8.36914H31.2929V11.3633H27.5664V23.498H23.5343V11.3633Z" fill="white"></path>
    <path d="M32.8743 8.36914H43.537V11.2315H36.9064V14.3522H43.1681V17.2145H36.9064V20.6357H43.7742V23.498H32.8743V8.36914Z" fill="white"></path>
    <path d="M60.6709 8.36914H64.703V14.1571H69.4678V8.36914H73.5V23.498H69.4678V17.0195H64.703V23.498H60.6709V8.36914Z" fill="white"></path>
    <path d="M22.1846 0.5C13.0873 0.5 5.2338 2.82469 0.700928 6.47249C0.895946 6.47249 8.59655 6.50412 12.381 6.47249C17.1985 3.5047 24.9518 2.62437 34.0017 3.97385C37.3961 4.4799 40.6113 5.30224 43.5154 6.36179C38.9457 2.82996 31.0975 0.5 22.1846 0.5Z" fill="white"></path>
    <path d="M73.4219 25.6284H23.4602V27.4998H73.4219V25.6284Z" fill="white"></path>
  </g>
  <defs>
    <clipPath id="clip0_2210_1791">
      <rect width="73.5" height="27" fill="white" transform="translate(0 0.5)"></rect>
    </clipPath>
  </defs>
</svg>
