<?xml version="1.0" encoding="UTF-8"?>
<svg xmlns="http://www.w3.org/2000/svg" width="149" height="45" viewBox="0 0 149 45" fill="none">
  <path d="M59.1313 7.11837C59.7234 7.11837 60.2366 7.19732 60.6576 7.36837L60.4866 11.6973C59.9734 11.5394 59.4603 11.5394 58.9603 11.5394C56.8419 11.5394 55.6445 13.2631 55.6445 16.1973V22.5788H51.1446V7.52626H55.3024V10.3026C56.0655 8.34205 57.2498 7.11837 59.1182 7.11837H59.1313ZM44.5261 10.3026V7.52626H40.3683V22.5788H44.8682V16.1973C44.8682 13.2499 46.0525 11.5394 48.184 11.5394C48.6972 11.5394 49.2103 11.5394 49.7103 11.6973L49.8814 7.36837C49.4603 7.21048 48.9471 7.11837 48.355 7.11837C46.4077 7.11837 45.3024 8.34205 44.5393 10.3026H44.5261ZM38.9998 15.6183V16.6052H29.9999C30.2499 18.6446 31.6183 19.4736 33.8288 19.4736C35.013 19.4736 36.4604 19.1446 37.8157 18.3288V22.013C36.3683 22.6709 34.671 22.9999 32.9736 22.9999C28.7236 22.9999 25.4078 20.0525 25.4078 15.0657C25.4078 10.0789 28.3815 7.13154 32.3683 7.13154C37.2104 7.13154 38.9998 11.1447 38.9998 15.6447V15.6183ZM34.9209 13.6578C34.9209 11.8552 34.2367 10.4736 32.4604 10.4736C30.842 10.4736 29.9999 11.8684 29.9078 13.6578H34.9209ZM74.4208 15.6183V16.6052H65.4208C65.6708 18.6446 67.0392 19.4736 69.2366 19.4736C70.4208 19.4736 71.8681 19.1446 73.2233 18.3288V22.013C71.776 22.6709 70.0786 22.9999 68.3813 22.9999C64.1313 22.9999 60.8155 20.0525 60.8155 15.0657C60.8155 10.0789 63.7892 7.13154 67.776 7.13154C72.6181 7.13154 74.4076 11.1447 74.4076 15.6447L74.4208 15.6183ZM70.3418 13.6578C70.3418 11.8552 69.6576 10.4736 67.8813 10.4736C66.105 10.4736 65.4208 11.8684 65.3286 13.6578H70.3418ZM8.32893 9.40784H0V15.6183H8.32893V23.5525H15.2895V15.6183H23.9604V9.40784H15.2895V6.13153H23.9604V0H8.32893V9.40784Z" fill="#009231"></path>
  <path d="M114.342 6.86859H115.026V11.1186C114.513 10.9607 114.092 10.9607 113.407 10.9607C110.697 10.9607 110.355 13.2502 110.355 15.4607V18.487L105.592 22.1711V10.316C105.592 8.84228 105.592 7.94755 105.513 7.13176H109.842C109.842 8.0265 109.921 8.93437 109.921 9.8291H110C110.934 8.27648 111.618 6.88176 114.328 6.88176L114.342 6.86859Z" fill="#F2900F"></path>
  <path d="M125.895 7.11859L125.724 9.48701C125.29 8.59227 124.198 6.86859 121.474 6.86859C117.908 6.86859 115.961 9.8949 115.961 14.6449C115.961 20.2896 118.75 22.1712 121.474 22.1712C124.198 22.1712 125.303 20.2896 125.566 19.4738H125.645C125.645 22.579 125.474 25.2764 121.737 25.2764C119.606 25.2764 117.658 24.2896 116.816 23.9738L122.329 28.5527C130.224 28.5527 130.224 22.5001 130.224 20.3685V10.4738C130.224 8.59227 130.316 7.85543 130.395 7.11859H125.895ZM123.171 18.9738C121.053 18.9738 120.882 15.7896 120.882 14.6317C120.882 13.0791 120.961 10.1317 123.171 10.1317C125.132 10.1317 125.553 12.908 125.553 14.6317C125.553 16.6712 125.04 18.9738 123.171 18.9738Z" fill="#F2900F"></path>
  <path d="M104.316 14.7238C104.316 6.86859 98.9608 6.86859 97.6056 6.86859C93.1056 6.86859 90.645 10.5528 90.645 14.5528C90.645 19.1317 93.1055 22.408 98.5397 22.408L103.382 18.0791C102.198 18.658 100.579 19.2238 98.9608 19.2238C96.3292 19.2238 95.1451 17.5922 95.1451 15.8686H104.316V14.7238ZM95.1451 13.3291C95.1451 12.5133 95.145 9.64489 97.6056 9.64489C99.474 9.64489 99.9871 11.4475 99.9871 13.3291H95.1451Z" fill="#F2900F"></path>
  <path d="M84.6974 6.86859C82.2369 6.86859 81.0395 8.01332 80.2763 9.64489C80.2763 8.57911 80.1974 7.76333 80.1053 7.10544H75.7764C75.8553 7.92123 75.9474 8.82912 75.9474 10.2896V22.1448L80.7106 18.0527V13.7238C80.7106 11.7633 81.2237 10.5396 82.75 10.5396C83.6842 10.5396 84.5394 11.0265 84.5394 12.9081V22.2369L89.3027 18.0659V12.3423C89.3027 9.31595 88.1973 6.86859 84.7105 6.86859H84.6974Z" fill="#F2900F"></path>
  <path d="M140.25 22.0923L147.21 2.69763L138.974 16.2765L135.671 7.11866H131.5L136.342 21.6844L132.355 34.8422L136.763 32.237L135.066 43.7632L143.474 23.8817L138.974 26.8291L140.25 22.0923Z" fill="#F2900F"></path>
  <path d="M135.671 7.11795L138.974 16.2758L148.487 0.657471L135.671 7.11795Z" fill="#009231"></path>
  <path d="M24.3387 37.0242C23.2255 37.0242 22.6416 36.3125 22.6416 35.0717V32.4622H23.3168V35.0534C23.3168 35.8928 23.6635 36.349 24.3387 36.349C25.0139 36.349 25.3788 35.9111 25.3788 35.0899V32.4622H26.054V35.0717C26.054 36.3308 25.4518 37.0242 24.3204 37.0242" fill="black"></path>
  <path d="M30.2884 36.9517L28.5 34.1415L28.1716 33.594C28.1716 33.7583 28.1716 34.3787 28.1716 34.6342V36.97H27.5146V32.4809H28.2081L29.9052 35.2181C30.0146 35.4006 30.2154 35.7291 30.2701 35.8568C30.2701 35.6926 30.2701 35.0539 30.2701 34.7984V32.4809H30.9271V36.97H30.2884V36.9517Z" fill="black"></path>
  <path d="M34.4309 34.2518C34.3214 33.9233 34.139 33.4124 34.0842 33.2117C34.0295 33.4124 33.8652 33.9233 33.7557 34.2518L33.3908 35.2737H34.7776L34.4127 34.2336L34.4309 34.2518ZM35.3798 36.9526L34.9966 35.8942H33.2083L32.8433 36.9526H32.1499L33.774 32.4635H34.4857L36.128 36.9526H35.4163H35.3798Z" fill="black"></path>
  <path d="M39.3579 36.9526V32.4635H42.2411V33.1204H40.0331V34.2336H41.3287V34.8905H40.0331V36.3139H42.3506V36.9526H39.3579Z" fill="black"></path>
  <path d="M46.9869 36.9526V34.5803C46.9869 34.3066 46.9869 33.9233 46.9869 33.7956C46.9322 33.9233 46.8045 34.2518 46.695 34.5073L45.6001 37.0438L44.5234 34.5073C44.4139 34.2518 44.2862 33.9233 44.2315 33.7956C44.2315 33.9233 44.2315 34.3248 44.2315 34.5803V36.9526H43.5928V32.4635H44.2862L45.2899 34.854C45.3993 35.1095 45.5453 35.438 45.6001 35.6204C45.6731 35.438 45.8008 35.1095 45.9103 34.854L46.8957 32.4635H47.6074V36.9526H46.9504H46.9869Z" fill="black"></path>
  <path d="M51.0019 33.1022H49.7976V34.635H51.0019C51.5129 34.635 51.7684 34.3431 51.7684 33.8686C51.7684 33.3942 51.4581 33.1022 51.0019 33.1022ZM50.9654 35.2737H49.7976V36.9526H49.1406V32.4635H51.0202C51.8414 32.4635 52.4618 32.9379 52.4618 33.8686C52.4618 34.7993 51.8414 35.2737 50.9654 35.2737Z" fill="black"></path>
  <path d="M55.6009 33.1013H54.287V34.543H55.6009C56.0571 34.543 56.3673 34.3057 56.3673 33.8313C56.3673 33.3568 56.0571 33.1013 55.6009 33.1013ZM56.0571 35.1269L56.9695 36.97H56.1848L55.2906 35.1999H54.2688V36.97H53.6118V32.4809H55.5826C56.3673 32.4809 57.0242 32.9006 57.0242 33.813C57.0242 34.5247 56.641 34.9809 56.0388 35.1269" fill="black"></path>
  <path d="M58.4116 36.9526V32.4635H61.2948V33.1204H59.0868V34.2336H60.3824V34.8905H59.0868V36.3139H61.4043V36.9526H58.4116Z" fill="black"></path>
  <path d="M63.923 37.0248C63.2661 37.0248 62.7004 36.7328 62.3354 36.2948L62.8099 35.8204C63.1201 36.1488 63.5581 36.3496 63.9778 36.3496C64.6165 36.3496 64.9084 36.1306 64.9084 35.6926C64.9084 35.3459 64.6347 35.1634 63.8865 34.9445C62.9376 34.6707 62.4814 34.4153 62.4814 33.6306C62.4814 32.8459 63.1384 32.3715 63.9595 32.3715C64.5617 32.3715 65.0362 32.5904 65.4194 32.9737L64.9449 33.4481C64.6712 33.1561 64.3427 33.0101 63.9048 33.0101C63.3756 33.0101 63.1566 33.2656 63.1566 33.5758C63.1566 33.8861 63.3573 34.0503 64.142 34.2693C65.0179 34.543 65.5836 34.8167 65.5836 35.6196C65.5836 36.4226 65.0727 36.97 63.923 36.97" fill="black"></path>
  <path d="M68.7775 34.2518C68.668 33.9233 68.4855 33.4124 68.4308 33.2117C68.376 33.4124 68.2118 33.9233 68.1023 34.2518L67.7373 35.2737H69.1242L68.7592 34.2336L68.7775 34.2518ZM69.7264 36.9526L69.3432 35.8942H67.5549L67.1716 36.9526H66.46L68.0841 32.4635H68.7957L70.4381 36.9526H69.7264Z" fill="black"></path>
  <path d="M74.362 33.1387V34.3066H75.6576V34.9635H74.362V36.9708H73.7051V32.4635H76.5883V33.1387H74.362Z" fill="black"></path>
  <path d="M77.7563 36.9526V32.4635H80.6396V33.1204H78.4133V34.2336H79.7089V34.8905H78.4133V36.3139H80.7308V36.9526H77.7563Z" fill="black"></path>
  <path d="M83.9796 33.1013H82.6657V34.543H83.9796C84.4358 34.543 84.746 34.3057 84.746 33.8313C84.746 33.3568 84.4358 33.1013 83.9796 33.1013ZM84.4358 35.1269L85.3482 36.97H84.5635L83.6694 35.1999H82.6657V36.97H82.0088V32.4809H83.9796C84.7643 32.4809 85.4212 32.9006 85.4212 33.813C85.4212 34.5247 85.038 34.9809 84.4358 35.1269Z" fill="black"></path>
  <path d="M88.7618 33.1013H87.448V34.543H88.7618C89.218 34.543 89.5282 34.3057 89.5282 33.8313C89.5282 33.3568 89.218 33.1013 88.7618 33.1013ZM89.218 35.1269L90.1304 36.97H89.3458L88.4516 35.1999H87.448V36.97H86.791V32.4809H88.7618C89.5465 32.4809 90.2034 32.9006 90.2034 33.813C90.2034 34.5247 89.8202 34.9809 89.218 35.1269Z" fill="black"></path>
  <path d="M91.5542 36.9526V32.4635H94.4557V33.1204H92.2294V34.2336H93.525V34.8905H92.2294V36.3139H94.5469V36.9526H91.5542Z" fill="black"></path>
  <path d="M97.6677 35.1825V36.9526H96.9926V35.1825L95.3867 32.4635H96.1714L96.8648 33.7044C97.0108 33.9781 97.248 34.4343 97.321 34.5985C97.394 34.4343 97.613 33.9964 97.7772 33.7044L98.4889 32.4635H99.2736L97.6677 35.1825Z" fill="black"></path>
  <path d="M101.773 37.0252C100.605 37.0252 99.8755 36.0763 99.8755 34.7077C99.8755 33.3391 100.605 32.3902 101.773 32.3902C102.503 32.3902 102.996 32.6822 103.306 33.2296L102.704 33.6128C102.485 33.2479 102.248 33.0654 101.773 33.0654C100.989 33.0654 100.569 33.7041 100.569 34.7077C100.569 35.7114 100.989 36.3501 101.773 36.3501C102.248 36.3501 102.521 36.1676 102.759 35.7844L103.324 36.1676C103.014 36.715 102.467 37.0252 101.773 37.0252Z" fill="black"></path>
  <path d="M106.154 33.0831C105.369 33.0831 104.932 33.7218 104.932 34.7254C104.932 35.7291 105.369 36.3678 106.154 36.3678C106.939 36.3678 107.377 35.7291 107.377 34.7254C107.377 33.7218 106.939 33.0831 106.154 33.0831ZM106.154 37.0429C104.986 37.0429 104.256 36.094 104.256 34.7254C104.256 33.3568 104.986 32.4079 106.154 32.4079C107.322 32.4079 108.052 33.375 108.052 34.7254C108.052 36.0758 107.304 37.0429 106.154 37.0429Z" fill="black"></path>
  <path d="M111.301 33.1013H109.987V34.543H111.301C111.739 34.543 112.067 34.3057 112.067 33.8313C112.067 33.3568 111.757 33.1013 111.301 33.1013ZM111.757 35.1269L112.669 36.97H111.885L110.991 35.1999H109.987V36.97H109.33V32.4809H111.301C112.086 32.4809 112.742 32.9006 112.742 33.813C112.742 34.5247 112.359 34.9809 111.757 35.1269Z" fill="black"></path>
  <path d="M115.972 33.1022H114.768V34.635H115.972C116.483 34.635 116.739 34.3431 116.739 33.8686C116.739 33.3942 116.447 33.1022 115.972 33.1022ZM115.936 35.2737H114.768V36.9526H114.111V32.4635H115.99C116.812 32.4635 117.432 32.9379 117.432 33.8686C117.432 34.7993 116.812 35.2737 115.936 35.2737Z" fill="black"></path>
</svg>
