<svg xmlns="http://www.w3.org/2000/svg" width="89" height="17" viewBox="0 0 89 17" fill="none"><g clip-path="url(#clip0_2280_3812)"><path d="M14.0909 0.972656H5.34362V6.48641H0.665283V10.0836H5.34362V14.703H9.25043V10.0836H14.0909V6.48641H9.25043V4.57478H14.0909V0.972656Z" fill="#339900"></path><path d="M21.5849 8.30512C21.4768 7.7793 20.9509 6.79645 19.5848 6.79645C18.2186 6.79645 17.6977 7.7793 17.5847 8.30512H21.5849ZM23.9191 10.9244C23.4916 11.9072 22.8724 12.6689 22.1254 13.18C21.3932 13.7058 20.5234 13.9712 19.6192 13.9712C17.0933 13.9712 14.9507 11.922 14.9507 9.30271C14.9507 6.84068 16.8869 4.57031 19.5701 4.57031C22.2532 4.57031 24.2189 6.69817 24.2189 9.38133C24.2189 9.73024 24.1894 9.87276 24.155 10.0792H17.5503C17.7076 11.1259 18.5823 11.7451 19.6143 11.7451C20.4251 11.7451 20.8527 11.3814 21.2163 10.9195H23.9142L23.9191 10.9244Z" fill="white"></path><path d="M25.1182 4.87496H27.5949V5.81358H27.6244C27.8456 5.38604 28.3075 4.5752 29.8309 4.5752V7.22396C28.6073 7.25836 27.7522 7.50898 27.7522 8.84565V13.6862H25.1182V4.87496Z" fill="white"></path><path d="M30.6763 4.87496H33.153V5.81358H33.1825C33.4037 5.38604 33.8656 4.5752 35.389 4.5752V7.22396C34.1654 7.25836 33.3103 7.50898 33.3103 8.84565V13.6862H30.6763V4.87496Z" fill="white"></path><path d="M42.2643 8.30512C42.1562 7.7793 41.6304 6.79645 40.2642 6.79645C38.8981 6.79645 38.3772 7.7793 38.2641 8.30512H42.2643ZM44.5986 10.9244C44.171 11.9072 43.5518 12.6689 42.8049 13.18C42.0776 13.7058 41.2029 13.9712 40.2986 13.9712C37.7776 13.9712 35.6301 11.922 35.6301 9.30271C35.6301 6.84068 37.5663 4.57031 40.2495 4.57031C42.9327 4.57031 44.8983 6.69817 44.8983 9.38133C44.8983 9.73024 44.8689 9.87276 44.8345 10.0792H38.2297C38.387 11.1259 39.2617 11.7451 40.2937 11.7451C41.1046 11.7451 41.5321 11.3814 41.8958 10.9195H44.5937L44.5986 10.9244Z" fill="white"></path><path d="M53.4638 4.875L49.0508 16.6249H46.2546L47.6552 13.2439L44.3823 4.875H47.1933L48.9575 9.9907H48.9869L50.6676 4.875H53.4638Z" fill="white"></path><path d="M62.2943 10.3395C61.8176 12.3396 60.0583 13.9761 57.6749 13.9761C55.0065 13.9761 52.9622 11.8826 52.9622 9.26333C52.9622 6.64405 54.977 4.58008 57.611 4.58008C59.9453 4.58008 61.8323 6.11823 62.2795 8.28049H59.6111C59.3261 7.67604 58.8003 7.0421 57.7044 7.0421C56.4513 6.97822 55.6109 8.0102 55.6109 9.28299C55.6109 10.5558 56.4513 11.519 57.7044 11.519C58.8003 11.519 59.3261 10.885 59.6111 10.3445H62.2943V10.3395Z" fill="white"></path><path d="M67.6805 11.4943C68.8255 11.4943 69.7936 10.5606 69.7936 9.27309C69.7936 7.98557 68.8255 7.05187 67.6805 7.05187C66.5355 7.05187 65.5723 7.99048 65.5723 9.27309C65.5723 10.5557 66.5404 11.4943 67.6805 11.4943ZM67.6805 4.58984C70.8895 4.58984 72.4276 7.11575 72.4276 9.27309C72.4276 11.4304 70.8895 13.9563 67.6805 13.9563C64.4715 13.9563 62.9333 11.4354 62.9333 9.27309C62.9333 7.11084 64.4715 4.58984 67.6805 4.58984Z" fill="white"></path><path d="M73.2285 4.87496H75.7004V5.80866H75.7348C75.9559 5.38113 76.4178 4.5752 77.9363 4.5752V7.21905C76.7176 7.25345 75.8625 7.50407 75.8625 8.83582V13.6665H73.2334V4.87496H73.2285Z" fill="white"></path><path d="M85.7059 9.27813C85.7059 8.23141 84.9442 7.02742 83.5043 7.02742C82.0644 7.02742 81.3027 8.23141 81.3027 9.27813C81.3027 10.3887 82.1283 11.5092 83.5043 11.5092C84.8803 11.5092 85.7059 10.3838 85.7059 9.27813ZM78.7817 4.57031H81.2536V5.83818H81.3027C81.8236 5.17476 82.6984 4.57031 84.0449 4.57031C87.1654 4.57031 88.3399 7.31245 88.3399 9.35676C88.3399 11.8925 86.5659 13.9663 84.0596 13.9663C82.4772 13.9663 81.7303 13.2046 81.4158 12.8753V16.6003H78.7866V4.57523L78.7817 4.57031Z" fill="white"></path></g><defs><clipPath id="clip0_2280_3812"><rect width="87.6697" height="15.6518" fill="white" transform="translate(0.665283 0.972656)"></rect></clipPath></defs></svg>