<?xml version="1.0" encoding="UTF-8"?>
<svg xmlns="http://www.w3.org/2000/svg" width="158" height="29" viewBox="0 0 158 29" fill="none">
  <g clip-path="url(#clip0_129_2021)">
    <path d="M24.6172 0.100952H8.96884V9.96469H0.599609V16.3999H8.96884V24.6636H15.9579V16.3999H24.6172V9.96469H15.9579V6.54491H24.6172V0.100952Z" fill="#339900"></path>
    <path d="M38.0234 13.2175C37.83 12.2768 36.8893 10.5186 34.4454 10.5186C32.0014 10.5186 31.0696 12.2768 30.8674 13.2175H38.0234ZM42.1992 17.9032C41.4344 19.6614 40.3267 21.024 38.9904 21.9383C37.6805 22.879 36.1245 23.3537 34.5069 23.3537C29.9882 23.3537 26.1553 19.6878 26.1553 15.0021C26.1553 10.5977 29.619 6.53613 34.419 6.53613C39.219 6.53613 42.7355 10.3427 42.7355 15.1427C42.7355 15.7669 42.6827 16.0218 42.6212 16.3911H30.8058C31.0871 18.2636 32.652 19.3713 34.4981 19.3713C35.9487 19.3713 36.7135 18.7207 37.3641 17.8944H42.1904L42.1992 17.9032Z" fill="black"></path>
    <path d="M44.3438 7.08112H48.7745V8.76025H48.8273C49.2229 7.99541 50.0492 6.54486 52.7745 6.54486V11.2833C50.5855 11.3449 49.0558 11.7932 49.0558 14.1844V22.8438H44.3438V7.08112Z" fill="black"></path>
    <path d="M54.2871 7.08112H58.7179V8.76025H58.7706C59.1662 7.99541 59.9926 6.54486 62.7179 6.54486V11.2833C60.5289 11.3449 58.9992 11.7932 58.9992 14.1844V22.8438H54.2871V7.08112Z" fill="black"></path>
    <path d="M75.0175 13.2175C74.8241 12.2768 73.8835 10.5186 71.4395 10.5186C68.9956 10.5186 68.0637 12.2768 67.8615 13.2175H75.0175ZM79.1934 17.9032C78.4285 19.6614 77.3208 21.024 75.9846 21.9383C74.6835 22.879 73.1186 23.3537 71.5011 23.3537C66.9912 23.3537 63.1494 19.6878 63.1494 15.0021C63.1494 10.5977 66.6132 6.53613 71.4132 6.53613C76.2132 6.53613 79.7296 10.3427 79.7296 15.1427C79.7296 15.7669 79.6769 16.0218 79.6153 16.3911H67.8C68.0813 18.2636 69.6461 19.3713 71.4923 19.3713C72.9428 19.3713 73.7077 18.7207 74.3582 17.8944H79.1846L79.1934 17.9032Z" fill="black"></path>
    <path d="M95.0528 7.08118L87.1583 28.101H82.1561L84.6616 22.0526L78.8066 7.08118H83.8352L86.9913 16.2328H87.044L90.0506 7.08118H95.0528Z" fill="black"></path>
    <path d="M110.85 16.8569C109.997 20.4349 106.85 23.3624 102.586 23.3624C97.8124 23.3624 94.1553 19.6173 94.1553 14.9316C94.1553 10.2459 97.7597 6.55359 102.472 6.55359C106.648 6.55359 110.023 9.30524 110.823 13.1734H106.05C105.54 12.092 104.599 10.958 102.639 10.958C100.397 10.8437 98.8937 12.6899 98.8937 14.9668C98.8937 17.2437 100.397 18.9668 102.639 18.9668C104.599 18.9668 105.54 17.8327 106.05 16.8657H110.85V16.8569Z" fill="black"></path>
    <path d="M120.485 18.9228C122.534 18.9228 124.266 17.2525 124.266 14.9492C124.266 12.6459 122.534 10.9756 120.485 10.9756C118.437 10.9756 116.714 12.6547 116.714 14.9492C116.714 17.2437 118.446 18.9228 120.485 18.9228ZM120.485 6.57117C126.226 6.57117 128.978 11.0898 128.978 14.9492C128.978 18.8085 126.226 23.3272 120.485 23.3272C114.745 23.3272 111.993 18.8173 111.993 14.9492C111.993 11.0811 114.745 6.57117 120.485 6.57117Z" fill="black"></path>
    <path d="M130.41 7.08112H134.832V8.75145H134.894C135.289 7.98662 136.116 6.54486 138.832 6.54486V11.2745C136.652 11.3361 135.122 11.7844 135.122 14.1668V22.8086H130.419V7.08112H130.41Z" fill="black"></path>
    <path d="M152.732 14.9581C152.732 13.0856 151.369 10.9317 148.793 10.9317C146.217 10.9317 144.855 13.0856 144.855 14.9581C144.855 16.9449 146.332 18.9493 148.793 18.9493C151.255 18.9493 152.732 16.9361 152.732 14.9581ZM140.345 6.53613H144.767V8.80426H144.855C145.786 7.61745 147.351 6.53613 149.76 6.53613C155.343 6.53613 157.444 11.4416 157.444 15.0988C157.444 19.635 154.27 23.3449 149.786 23.3449C146.956 23.3449 145.619 21.9823 145.057 21.3933V28.057H140.354V6.54492L140.345 6.53613Z" fill="black"></path>
  </g>
  <defs>
    <clipPath id="clip0_129_2021">
      <rect width="156.835" height="28" fill="white" transform="translate(0.599609 0.100952)"></rect>
    </clipPath>
  </defs>
</svg>
