<?xml version="1.0" encoding="UTF-8"?>
<svg xmlns="http://www.w3.org/2000/svg" width="77" height="28" viewBox="0 0 77 28" fill="none">
  <g clip-path="url(#clip0_87_6583)">
    <path d="M60.9821 23.49C59.7911 23.7798 58.469 24.1187 56.3328 24.1187C52.1533 24.1187 47.3291 22.0031 47.3291 16.0718C47.3291 10.6107 51.148 7.89374 56.3109 7.89374C57.9062 7.89374 59.4524 8.25454 60.9603 8.7028L60.6215 12.0976C59.2721 11.3541 57.9718 10.9933 56.5349 10.9933C53.5683 10.9933 51.6397 13.1526 51.6397 16.0718C51.6397 19.1495 53.8196 21.0137 56.8737 21.0137C58.2395 21.0137 59.6327 20.6529 60.78 20.2046L60.9821 23.4846V23.49Z" fill="black"></path>
    <path d="M0.519023 19.9858C1.59531 20.5707 3.10321 21.019 4.82964 21.019C6.15725 21.019 7.41383 20.7511 7.41383 19.4938C7.41383 16.5691 0 18.4169 0 12.7097C0 8.93224 3.68233 7.89905 6.82925 7.89905C8.33714 7.89905 9.81772 8.12318 10.8722 8.48398L10.6045 11.7202C9.52816 11.2282 8.31529 10.9986 7.12427 10.9986C6.06983 10.9986 4.31608 11.0861 4.31608 12.4582C4.31608 15.0002 11.7299 13.2891 11.7299 18.9526C11.7299 23.0198 8.31529 24.124 4.83511 24.124C3.37638 24.124 1.55707 23.8999 0.163902 23.4462L0.524486 19.9858H0.519023Z" fill="black"></path>
    <path d="M18.5809 8.16046H14.4014V23.8442H18.5809V8.16046Z" fill="black"></path>
    <path d="M24.3939 11.2655H20.5312V8.16046H32.436V11.2655H28.5734V23.8497H24.3939V11.2655Z" fill="black"></path>
    <path d="M34.0762 8.16046H45.1286V11.1288H38.2557V14.3651H44.7462V17.3335H38.2557V20.8813H45.3745V23.8497H34.0762V8.16046Z" fill="black"></path>
    <path d="M62.8877 8.16046H67.0672V14.1628H72.0061V8.16046H76.1856V23.8497H72.0061V17.1312H67.0672V23.8497H62.8877V8.16046Z" fill="black"></path>
    <path d="M22.9954 0C13.5655 0 5.42508 2.41078 0.726562 6.19369C0.928708 6.19369 8.91073 6.22649 12.8334 6.19369C17.827 3.11598 25.8636 2.20305 35.2443 3.60251C38.7627 4.12731 42.0954 4.9801 45.1057 6.0789C40.369 2.41625 32.234 0 22.9954 0Z" fill="black"></path>
    <path d="M76.1049 26.0593H24.3174V28H76.1049V26.0593Z" fill="black"></path>
  </g>
  <defs>
    <clipPath id="clip0_87_6583">
      <rect width="76.186" height="28" fill="white"></rect>
    </clipPath>
  </defs>
</svg>
