<svg xmlns="http://www.w3.org/2000/svg" width="154" height="57" viewBox="0 0 154 57" fill="none"><g clip-path="url(#clip0_2280_3744)"><path d="M122.802 47.7786C120.419 48.358 117.773 49.0359 113.498 49.0359C105.135 49.0359 95.4814 44.8047 95.4814 32.9421C95.4814 22.0198 103.123 16.5859 113.455 16.5859C116.647 16.5859 119.741 17.3075 122.758 18.2041L122.08 24.9936C119.38 23.5067 116.778 22.7851 113.903 22.7851C107.966 22.7851 104.107 27.1037 104.107 32.9421C104.107 39.0975 108.469 42.8258 114.581 42.8258C117.314 42.8258 120.102 42.1042 122.397 41.2077L122.802 47.7676V47.7786Z" fill="white"></path><path d="M1.81203 40.7701C3.96575 41.94 6.98315 42.8365 10.4378 42.8365C13.0945 42.8365 15.609 42.3008 15.609 39.7861C15.609 33.9368 0.773438 37.6323 0.773438 26.218C0.773438 18.6631 8.142 16.5967 14.4392 16.5967C17.4566 16.5967 20.4193 17.0449 22.5293 17.7665L21.9936 24.239C19.8399 23.255 17.4128 22.7958 15.0295 22.7958C12.9195 22.7958 9.41019 22.9708 9.41019 25.715C9.41019 30.799 24.2457 27.3769 24.2457 38.7037C24.2457 46.8381 17.4128 49.0466 10.4488 49.0466C7.52978 49.0466 3.88923 48.5984 1.10142 47.6909L1.82297 40.7701H1.81203Z" fill="white"></path><path d="M37.954 17.1201H29.5906V48.4877H37.954V17.1201Z" fill="white"></path><path d="M49.588 23.3302H41.8586V17.1201H65.6808V23.3302H57.9514V48.4986H49.588V23.3302Z" fill="white"></path><path d="M68.9609 17.1201H91.0776V23.0569H77.3244V29.5294H90.3123V35.4661H77.3244V42.5618H91.5695V48.4986H68.9609V17.1201Z" fill="white"></path><path d="M126.616 17.1201H134.98V29.1248H144.863V17.1201H153.226V48.4986H144.863V35.0616H134.98V48.4986H126.616V17.1201Z" fill="white"></path><path d="M46.7885 0.798828C27.9189 0.798828 11.6293 5.6204 2.22729 13.1862C2.6318 13.1862 18.6043 13.2518 26.4539 13.1862C36.4463 7.03079 52.5282 5.20493 71.2994 8.00385C78.34 9.05344 85.0089 10.759 91.0327 12.9566C81.5542 5.63133 65.2756 0.798828 46.7885 0.798828Z" fill="#F9B122"></path><path d="M153.064 52.918H49.4343V56.7993H153.064V52.918Z" fill="#F9B122"></path></g><defs><clipPath id="clip0_2280_3744"><rect width="152.453" height="56" fill="white" transform="translate(0.773438 0.798828)"></rect></clipPath></defs></svg>