<svg xmlns="http://www.w3.org/2000/svg" width="64" height="64" viewBox="0 0 64 64" fill="none"><g clip-path="url(#clip0_2390_412)"><path d="M64 28V0.576172H49.3857L41.441 8.52092L39.7646 8.3868C37.021 8.16742 34.3151 8.81305 32 10.1935C29.6849 8.81317 26.9791 8.16742 24.2354 8.38667L22.559 8.5208L14.6143 0.576172H0V28L5.50763 33.5075C5.6565 35.0519 6.2255 36.5208 7.132 37.7585L6.9765 37.914C4.784 40.1065 4.784 43.6739 6.97675 45.8667C7.59713 46.487 8.3375 46.9433 9.14487 47.2165C8.51225 49.1649 8.96688 51.3924 10.512 52.9375L10.6065 53.0319L10.617 53.0398C11.6665 54.0373 13.0352 54.5847 14.4885 54.5847H14.491C14.7209 54.5845 14.9483 54.5692 15.1729 54.542C15.3941 55.6009 15.9166 56.5742 16.6996 57.357C17.7617 58.4193 19.1736 59.004 20.6758 59.004H20.6782C20.9094 59.0039 21.138 58.9884 21.3639 58.9609C21.5801 59.9933 22.0869 60.9764 22.8869 61.7764C23.949 62.8386 25.361 63.4234 26.8631 63.4234H26.8656C28.3685 63.4228 29.781 62.8367 30.8458 61.7702L31.5417 61.0699L32.2405 61.773C33.3024 62.8367 34.7149 63.4227 36.2178 63.4234H36.2202C37.7222 63.4234 39.1343 62.8385 40.1966 61.7762C40.9965 60.9763 41.5031 59.9933 41.7194 58.9609C41.9453 58.9883 42.1739 59.0039 42.405 59.004H42.4075C43.9095 59.004 45.3215 58.4192 46.3838 57.357L46.5991 57.1417L46.6126 57.1144C47.2689 56.3774 47.7121 55.4953 47.9113 54.5438C48.1355 54.5708 48.3629 54.5845 48.5924 54.5847H48.5949C50.048 54.5847 51.417 54.0373 52.4664 53.0397L52.5713 52.9374C53.3708 52.1379 53.8786 51.1558 54.095 50.1241C54.3205 50.1513 54.549 50.1652 54.7796 50.1653H54.7821C56.2841 50.1653 57.6961 49.5804 58.7584 48.5183L58.9738 48.3029L58.9873 48.2757C59.9044 47.2457 60.4056 45.9323 60.4056 44.5418C60.4056 43.0398 59.8206 41.6277 58.7585 40.5655L56.4622 38.2693C57.6049 36.9347 58.3233 35.2707 58.4933 33.5074L64 28ZM50.939 4.32617H60.25V25.9028L44.8061 10.459L50.939 4.32617ZM13.061 4.32617L19.1938 10.4589L3.75 25.9028V4.32617H13.061ZM9.628 40.5657L11.7633 38.4304C12.4835 37.7102 13.6855 37.7097 14.4064 38.4304C15.1345 39.1586 15.135 40.3437 14.4075 41.0723L12.2788 43.2138C10.5779 44.9173 7.91263 42.2814 9.628 40.5657ZM14.4893 50.8348C13.9851 50.8348 13.5137 50.6269 13.1554 50.2777C12.4332 49.5467 12.4359 48.3643 13.1635 47.6368L18.8344 41.9659C19.5546 41.2458 20.7566 41.2452 21.4775 41.9659C22.2056 42.694 22.206 43.8792 21.4785 44.6079L15.8141 50.285C15.4605 50.6393 14.9899 50.8345 14.4893 50.8348ZM20.6764 55.2542C20.1809 55.2542 19.7013 55.0557 19.3509 54.7053C18.6205 53.9749 18.6205 52.7865 19.3509 52.0562L23.2539 48.1532C23.9731 47.4339 25.1772 47.4336 25.8971 48.1532C26.6251 48.8813 26.6256 50.0665 25.8981 50.7952L22.0014 54.7044C21.6476 55.0588 21.1771 55.254 20.6764 55.2542ZM26.8636 59.6737C26.3681 59.6737 25.8883 59.4752 25.538 59.1248C24.8076 58.3944 24.8076 57.2059 25.538 56.4757L27.6733 54.3404C28.3935 53.6202 29.5955 53.6197 30.3164 54.3404C31.0445 55.0686 31.045 56.2537 30.3175 56.9823L28.1887 59.1238C27.8349 59.4782 27.3643 59.6734 26.8636 59.6737ZM56.1061 45.8664C55.3801 46.5944 54.1754 46.5864 53.4511 45.861L48.2475 40.662L45.5959 43.3137L49.919 47.6367C50.646 48.3638 50.6494 49.545 49.9285 50.2763C49.1236 50.9507 48.0715 51.0894 47.2639 50.2804L42.9442 45.9653L40.2926 48.6169L43.7318 52.0562C44.4901 52.5947 44.4077 54.0292 43.7318 54.7053C43.0075 55.4297 41.8037 55.4283 41.0802 54.7033L38.1618 51.7894L35.5101 54.4412L37.5445 56.4754C38.2749 57.2058 38.2749 58.3943 37.5443 59.1249C36.8149 59.8542 35.627 59.8581 34.8969 59.1268L33.9964 58.2207C35.0745 56.1092 34.732 53.4528 32.9678 51.6887C32.1839 50.9047 31.2088 50.3818 30.1478 50.1617C30.3503 48.5033 29.8181 46.7713 28.5485 45.5014C27.7472 44.7003 26.7621 44.1935 25.728 43.9783C25.9319 42.3187 25.3999 40.5849 24.1291 39.3142C23.0679 38.2529 21.6569 37.6684 20.156 37.6684C19.5516 37.6684 18.9624 37.7648 18.4041 37.9472C18.1366 37.1542 17.6886 36.4092 17.058 35.7785C15.9969 34.7173 14.5859 34.1328 13.0849 34.1328C11.9242 34.1328 10.818 34.4837 9.885 35.133C9.45487 34.4013 9.21825 33.5592 9.21825 32.6913V31.9147L6.12962 28.8262L22.6831 12.2729L24.5344 12.1248C26.0192 12.0062 27.4874 12.2447 28.8314 12.7947L18.0359 23.5902L22.017 27.5712C23.0804 28.6345 24.4941 29.2202 25.9981 29.2202C27.5019 29.2202 28.9157 28.6345 29.9791 27.5712L35.2285 22.3217C35.2824 22.3547 35.337 22.3863 35.3916 22.4179L35.3493 22.4603L56.1061 43.2174C56.828 43.9392 56.8285 45.1442 56.1061 45.8664ZM41.3944 23.2023C42.7096 22.8487 43.916 22.1572 44.9053 21.168L42.2536 18.5163C41.4744 19.2955 40.4386 19.7245 39.3369 19.7245C39.3351 19.7245 39.3334 19.7245 39.3315 19.7245C38.2278 19.7232 37.1911 19.2915 36.406 18.5024L35.0802 17.1667L27.3276 24.9195C26.5945 25.6525 25.402 25.6525 24.6688 24.9195L23.3393 23.5902L32.0886 14.8408C34.0341 12.8952 36.7235 11.9052 39.4658 12.1247L41.317 12.2728L57.8704 28.8262L54.7817 31.9147V32.6913C54.7817 33.7529 54.4275 34.776 53.7982 35.6059L41.3944 23.2023Z" fill="white"></path></g><defs><clipPath id="clip0_2390_412"><rect width="64" height="64" fill="white"></rect></clipPath></defs></svg>