<svg xmlns="http://www.w3.org/2000/svg" width="64" height="64" viewBox="0 0 64 64" fill="none"><g clip-path="url(#clip0_2390_10223)"><path d="M26.5427 49.0684H3.58037V52.6487H0V63.5594H30.1127V52.6487H26.5426L26.5427 49.0684ZM26.3627 59.8094H3.75V56.3987H7.33038V52.8184H22.7927V56.3987H26.3629V59.8094H26.3627Z" fill="white"></path><path d="M58.375 14.5398H33.7535L26.375 12.303V4.19141H30.1006V0.441406H0V4.19141H3.72563V36.4439H0V40.1939H30.1006V36.4439H26.375V28.0265L33.7535 25.7898H58.375C61.4766 25.7898 64 23.2664 64 20.1648C64 17.0632 61.4766 14.5398 58.375 14.5398ZM7.47563 4.19141H22.625V8.69391H7.47563V4.19141ZM22.625 12.4439V28.1914H7.47563V12.4439H22.625ZM22.625 36.4439H7.47563V31.9414H22.625V36.4439ZM26.375 16.2215L31.6006 17.8057V22.5239L26.375 24.108V16.2215ZM58.375 22.0398H35.3506V18.2898H58.375C59.4089 18.2898 60.25 19.1309 60.25 20.1648C60.25 21.1987 59.4089 22.0398 58.375 22.0398Z" fill="white"></path></g><defs><clipPath id="clip0_2390_10223"><rect width="64" height="64" fill="white"></rect></clipPath></defs></svg>