<svg xmlns="http://www.w3.org/2000/svg" width="64" height="64" viewBox="0 0 64 64" fill="none"><path d="M43.7601 8.82031H20.7399V20.0703H43.7601V8.82031ZM40.0101 16.3203H24.4899V12.5703H40.0101V16.3203Z" fill="white"></path><path d="M54.2524 34.5915L54.2395 0H10.2401V5.125H2V17.125H10.2401V22.25H2V34.25H10.2401V39.375H2V51.375H10.2401V56.5H32.742C35.533 60.998 40.5159 64 46.1875 64C54.9065 64 62 56.9065 62 48.1875C62 42.4124 58.8874 37.3514 54.2524 34.5915ZM5.75 13.375V8.875H10.2401V13.375H5.75ZM5.75 30.5V26H10.2401V30.5H5.75ZM5.75 47.625V43.125H10.2401V47.625H5.75ZM13.9901 52.75V3.75H50.4907L50.5018 32.9733C49.1299 32.5836 47.6826 32.375 46.1875 32.375C40.4115 32.375 35.3498 35.4886 32.5901 40.125H25.5625V43.875H30.9727C30.5835 45.2464 30.375 46.693 30.375 48.1875C30.375 49.7733 30.6106 51.3047 31.047 52.75H13.9901ZM46.1875 60.25C39.5363 60.25 34.125 54.8387 34.125 48.1875C34.125 41.5363 39.5363 36.125 46.1875 36.125C52.8387 36.125 58.25 41.5363 58.25 48.1875C58.25 54.8387 52.8387 60.25 46.1875 60.25Z" fill="white"></path><path d="M44.3583 49.4729L41.4675 46.5822L38.8159 49.2338L44.3583 54.7762L53.5592 45.5753L50.9075 42.9238L44.3583 49.4729Z" fill="white"></path></svg>